<svg class="main-svg" xmlns="http://www.w3.org/2000/svg" xmlns:xlink="http://www.w3.org/1999/xlink" width="700" height="500" style="" viewBox="0 0 700 500"><rect x="0" y="0" width="700" height="500" style="fill: rgb(255, 255, 255); fill-opacity: 1;"/><defs id="defs-152a0b"><g class="clips"/><g class="gradients"/><g class="patterns"/></defs><g class="bglayer"/><g class="layer-below"><g class="imagelayer"/><g class="shapelayer"/></g><g class="cartesianlayer"/><g class="polarlayer"/><g class="smithlayer"/><g class="ternarylayer"/><g class="geolayer"/><g class="funnelarealayer"/><g class="pielayer"><g class="trace" stroke-linejoin="round" style="opacity: 1;"><g class="slice"><path class="surface" d="M240.83377777454254,288.5449457169374a48.6,48.6 0 0 0 -39.33377777454254,-77.1449457169374l0,-72.89999999999999a121.5,121.5 0 0 1 98.33444443635635,192.8623642923435Z" style="pointer-events: all; stroke-width: 0; fill: rgb(72, 209, 204); fill-opacity: 1; stroke: rgb(68, 68, 68); stroke-opacity: 1;"/><g class="slicetext"><text data-notex="1" class="slicetext" transform="translate(277.2695877583634,218.8930915683642)scale(0.6960899816757111)" text-anchor="middle" x="0" y="0" style="font-family: Arial; font-size: 12px; fill: rgb(128, 128, 128); fill-opacity: 1; white-space: pre;"><tspan class="line" dy="0em" x="0" y="0">home</tspan><tspan class="line" dy="1.3em" x="0" y="0">35%</tspan></text></g></g><g class="slice"><path class="surface" d="M201.5,211.4a48.6,48.6 0 0 0 -39.32181584986223,20.038578497043893l-58.98272377479334,-42.84213225443416a121.5,121.5 0 0 1 98.30453962465558,-50.09644624260973Z" style="pointer-events: all; stroke-width: 0; fill: rgb(131, 216, 193); fill-opacity: 1; stroke: rgb(68, 68, 68); stroke-opacity: 1;"/><g class="slicetext"><text data-notex="1" class="slicetext" transform="translate(162.88334603403752,181.74793929090617)scale(0.6960899816757111)" text-anchor="middle" x="0" y="0" style="font-family: Arial; font-size: 12px; fill: rgb(128, 128, 128); fill-opacity: 1; white-space: pre;"><tspan class="line" dy="0em" x="0" y="0">food</tspan><tspan class="line" dy="1.3em" x="0" y="0">15%</tspan></text></g></g><g class="slice"><path class="surface" d="M162.17818415013778,231.4385784970439a48.6,48.6 0 0 0 -6.895754386744165,43.59126519556832l-69.3263553549096,22.54476553891831a121.5,121.5 0 0 1 17.23938596686041,-108.97816298892079Z" style="pointer-events: all; stroke-width: 0; fill: rgb(144, 238, 144); fill-opacity: 1; stroke: rgb(68, 68, 68); stroke-opacity: 1;"/><g class="slicetext"><text data-notex="1" class="slicetext" transform="translate(117.49459990417515,244.236702911788)scale(0.6960899816757111)" text-anchor="middle" x="0" y="0" style="font-family: Arial; font-size: 12px; fill: rgb(128, 128, 128); fill-opacity: 1; white-space: pre;"><tspan class="line" dy="0em" x="0" y="0">savings</tspan><tspan class="line" dy="1.3em" x="0" y="0">15%</tspan></text></g></g><g class="slice"><path class="surface" d="M155.2824297633936,275.0298436926122a48.6,48.6 0 0 0 17.664386000251188,24.29795398237535l-42.82977635453281,58.99169651248133a121.5,121.5 0 0 1 -44.16096500062797,-60.744884955938375Z" style="pointer-events: all; stroke-width: 0; fill: rgb(240, 242, 166); fill-opacity: 1; stroke: rgb(68, 68, 68); stroke-opacity: 1;"/><g class="slicetext"><text data-notex="1" class="slicetext" transform="translate(126.4271576536708,312.102874078247)scale(0.6960899816757111)" text-anchor="middle" x="0" y="0" style="font-family: Arial; font-size: 12px; fill: rgb(128, 128, 128); fill-opacity: 1; white-space: pre;"><tspan class="line" dy="0em" x="0" y="0">baby</tspan><tspan class="line" dy="1.3em" x="0" y="0">10%</tspan></text></g></g><g class="slice"><path class="surface" d="M172.9468157636448,299.32779767498755a48.6,48.6 0 0 0 28.573544470852923,9.272198060206199l0.030540351746565726,72.89999360279063a121.5,121.5 0 0 1 -71.4338611771323,-23.180495150515497Z" style="pointer-events: all; stroke-width: 0; fill: rgb(255, 215, 0); fill-opacity: 1; stroke: rgb(68, 68, 68); stroke-opacity: 1;"/><g class="slicetext"><text data-notex="1" class="slicetext" transform="translate(172.8518980370647,345.80865583207935)scale(0.6960899816757111)" text-anchor="middle" x="0" y="0" style="font-family: Arial; font-size: 12px; fill: rgb(128, 128, 128); fill-opacity: 1; white-space: pre;"><tspan class="line" dy="0em" x="0" y="0">lifestyle</tspan><tspan class="line" dy="1.3em" x="0" y="0">10%</tspan></text></g></g><g class="slice"><path class="surface" d="M201.5203602344977,308.5999957351938a48.6,48.6 0 0 0 15.019164204399358,-2.3855747753697756l22.5592866583456,69.32163143973597a121.5,121.5 0 0 1 -37.54791051099839,5.963936938424439Z" style="pointer-events: all; stroke-width: 0; fill: rgb(255, 170, 90); fill-opacity: 1; stroke: rgb(68, 68, 68); stroke-opacity: 1;"/><g class="slicetext"><text data-notex="1" class="slicetext" transform="translate(217.65284698313212,361.6955174547373)scale(0.6960899816757111)rotate(-9.025203360448018)" text-anchor="middle" x="0" y="0" style="font-family: Arial; font-size: 12px; fill: rgb(128, 128, 128); fill-opacity: 1; white-space: pre;"><tspan class="line" dy="0em" x="0" y="0">utility</tspan><tspan class="line" dy="1.3em" x="0" y="0">5%</tspan></text></g></g><g class="slice"><path class="surface" d="M216.53952443889708,306.214420959824a48.6,48.6 0 0 0 13.546601343346547,-6.9105609361348685l42.87918867336542,58.95579003553367a121.5,121.5 0 0 1 -33.866503358366366,17.27640234033717Z" style="pointer-events: all; stroke-width: 0; fill: rgb(255, 160, 122); fill-opacity: 1; stroke: rgb(68, 68, 68); stroke-opacity: 1;"/><g class="slicetext"><text data-notex="1" class="slicetext" transform="translate(250.07015437279168,349.76572243774285)scale(0.6960899816757111)rotate(62.972396319509244)" text-anchor="middle" x="0" y="0" style="font-family: Arial; font-size: 12px; fill: rgb(128, 128, 128); fill-opacity: 1; white-space: pre;"><tspan class="line" dy="0em" x="0" y="0">medical</tspan><tspan class="line" dy="1.3em" x="0" y="0">5%</tspan></text></g></g><g class="slice"><path class="surface" d="M230.0861257822436,299.30386002368914a48.6,48.6 0 0 0 10.747651992298888,-10.758914306751644l59.000666661813746,42.8174185754062a121.5,121.5 0 0 1 -26.869129980747218,26.897285766879108Z" style="pointer-events: all; stroke-width: 0; fill: rgb(255, 131, 96); fill-opacity: 1; stroke: rgb(68, 68, 68); stroke-opacity: 1;"/><g class="slicetext"><text data-notex="1" class="slicetext" transform="translate(269.86263527291504,324.7935999603107)scale(0.6960899816757111)rotate(44.96999599946662)" text-anchor="middle" x="0" y="0" style="font-family: Arial; font-size: 12px; fill: rgb(128, 128, 128); fill-opacity: 1; white-space: pre;"><tspan class="line" dy="0em" x="0" y="0">transportation</tspan><tspan class="line" dy="1.3em" x="0" y="0">5%</tspan></text></g></g><g class="slice"><path class="surface" d="M240.8337777745425,288.5449457169375a48.6,48.6 0 0 0 0,0l59.000666661813746,42.8174185754062a121.5,121.5 0 0 1 0,0Z" style="pointer-events: all; stroke-width: 0; fill: rgb(237, 106, 90); fill-opacity: 1; stroke: rgb(68, 68, 68); stroke-opacity: 1;"/><g class="slicetext"><text data-notex="1" class="slicetext" transform="translate(201.5,138.5)scale(0)" text-anchor="middle" x="0" y="0" style="font-family: Arial; font-size: 12px; fill: rgb(128, 128, 128); fill-opacity: 1; white-space: pre;"><tspan class="line" dy="0em" x="0" y="0">other</tspan><tspan class="line" dy="1.3em" x="0" y="0">0%</tspan></text></g></g><g class="slice"><path class="surface" d="M240.8337777745425,288.5449457169375a48.6,48.6 0 0 0 0,0l59.000666661813746,42.8174185754062a121.5,121.5 0 0 1 0,0Z" style="pointer-events: all; stroke-width: 0; fill: rgb(255, 99, 71); fill-opacity: 1; stroke: rgb(68, 68, 68); stroke-opacity: 1;"/><g class="slicetext"><text data-notex="1" class="slicetext" transform="translate(201.5,138.5)scale(0)" text-anchor="middle" x="0" y="0" style="font-family: Arial; font-size: 12px; fill: rgb(128, 128, 128); fill-opacity: 1; white-space: pre;"><tspan class="line" dy="0em" x="0" y="0">food_other</tspan><tspan class="line" dy="1.3em" x="0" y="0">0%</tspan></text></g></g></g><g class="trace" stroke-linejoin="round" style="opacity: 1;"><g class="slice"><path class="surface" d="M547.0678912850163,261.7663340926445a48.599999999999994,48.599999999999994 0 0 0 -48.567891285016294,-50.36633409264448l0,-72.89999999999999a121.49999999999999,121.49999999999999 0 0 1 121.41972821254073,125.9158352316112Z" style="pointer-events: all; stroke-width: 0; fill: rgb(72, 209, 204); fill-opacity: 1; stroke: rgb(68, 68, 68); stroke-opacity: 1;"/><g class="slicetext"><text data-notex="1" class="slicetext" transform="translate(559.7225418065682,198.4891638647448)scale(0.6960899816757111)" text-anchor="middle" x="0" y="0" style="font-family: Arial; font-size: 12px; fill: rgb(128, 128, 128); fill-opacity: 1; white-space: pre;"><tspan class="line" dy="0em" x="0" y="0">food</tspan><tspan class="line" dy="1.3em" x="0" y="0">25.6%</tspan></text></g></g><g class="slice"><path class="surface" d="M498.5,211.4a48.599999999999994,48.599999999999994 0 0 0 -48.07848561927046,41.49935069464747l-72.11772842890568,-10.65097395802879a121.49999999999999,121.49999999999999 0 0 1 120.19621404817615,-103.74837673661867Z" style="pointer-events: all; stroke-width: 0; fill: rgb(131, 216, 193); fill-opacity: 1; stroke: rgb(68, 68, 68); stroke-opacity: 1;"/><g class="slicetext"><text data-notex="1" class="slicetext" transform="translate(440.12940269315203,192.37557031061021)scale(0.6960899816757111)rotate(-40.79939573235981)" text-anchor="middle" x="0" y="0" style="font-family: Arial; font-size: 12px; fill: rgb(128, 128, 128); fill-opacity: 1; white-space: pre;"><tspan class="line" dy="0em" x="0" y="0">transportation</tspan><tspan class="line" dy="1.3em" x="0" y="0">22.7%</tspan></text></g></g><g class="slice"><path class="surface" d="M450.42151438072955,252.89935069464747a48.599999999999994,48.599999999999994 0 0 0 14.757316421402539,42.47945204494587l-49.981753796801875,53.06820410939002a121.49999999999999,121.49999999999999 0 0 1 -36.893291053506346,-106.19863011236468Z" style="pointer-events: all; stroke-width: 0; fill: rgb(144, 238, 144); fill-opacity: 1; stroke: rgb(68, 68, 68); stroke-opacity: 1;"/><g class="slicetext"><text data-notex="1" class="slicetext" transform="translate(418.1599050453112,285.43568110918034)scale(0.6960899816757111)" text-anchor="middle" x="0" y="0" style="font-family: Arial; font-size: 12px; fill: rgb(128, 128, 128); fill-opacity: 1; white-space: pre;"><tspan class="line" dy="0em" x="0" y="0">utility</tspan><tspan class="line" dy="1.3em" x="0" y="0">15.3%</tspan></text></g></g><g class="slice"><path class="surface" d="M465.1788308021321,295.37880273959337a48.599999999999994,48.599999999999994 0 0 0 27.826150615789828,12.909547519890731l-8.242527873117139,72.43252538922611a121.49999999999999,121.49999999999999 0 0 1 -69.56537653947457,-32.27386879972683Z" style="pointer-events: all; stroke-width: 0; fill: rgb(240, 242, 166); fill-opacity: 1; stroke: rgb(68, 68, 68); stroke-opacity: 1;"/><g class="slicetext"><text data-notex="1" class="slicetext" transform="translate(459.6326754265058,341.30299449930186)scale(0.6960899816757111)" text-anchor="middle" x="0" y="0" style="font-family: Arial; font-size: 12px; fill: rgb(128, 128, 128); fill-opacity: 1; white-space: pre;"><tspan class="line" dy="0em" x="0" y="0">baby</tspan><tspan class="line" dy="1.3em" x="0" y="0">10.2%</tspan></text></g></g><g class="slice"><path class="surface" d="M493.0049814179219,308.2883502594841a48.599999999999994,48.599999999999994 0 0 0 26.119634181266317,-4.281700405334516l30.93692339878233,66.00997478122434a121.49999999999999,121.49999999999999 0 0 1 -65.29908545316579,10.70425101333629Z" style="pointer-events: all; stroke-width: 0; fill: rgb(255, 215, 0); fill-opacity: 1; stroke: rgb(68, 68, 68); stroke-opacity: 1;"/><g class="slicetext"><text data-notex="1" class="slicetext" transform="translate(513.9481109298197,351.76364648241145)scale(0.6960899816757111)" text-anchor="middle" x="0" y="0" style="font-family: Arial; font-size: 12px; fill: rgb(128, 128, 128); fill-opacity: 1; white-space: pre;"><tspan class="line" dy="0em" x="0" y="0">lifestyle</tspan><tspan class="line" dy="1.3em" x="0" y="0">8.78%</tspan></text></g></g><g class="slice"><path class="surface" d="M519.1246155991882,304.00664985414954a48.599999999999994,48.599999999999994 0 0 0 16.210645837101467,-12.302966867465045l55.25289215443453,47.55552448002677a121.49999999999999,121.49999999999999 0 0 1 -40.52661459275367,30.757417168662613Z" style="pointer-events: all; stroke-width: 0; fill: rgb(255, 170, 90); fill-opacity: 1; stroke: rgb(68, 68, 68); stroke-opacity: 1;"/><g class="slicetext"><text data-notex="1" class="slicetext" transform="translate(559.6469854838977,336.4756097159051)scale(0.6960899816757111)rotate(52.8035500723862)" text-anchor="middle" x="0" y="0" style="font-family: Arial; font-size: 12px; fill: rgb(128, 128, 128); fill-opacity: 1; white-space: pre;"><tspan class="line" dy="0em" x="0" y="0">savings</tspan><tspan class="line" dy="1.3em" x="0" y="0">6.71%</tspan></text></g></g><g class="slice"><path class="surface" d="M535.3352614362897,291.7036829866845a48.599999999999994,48.599999999999994 0 0 0 9.654071241748966,-17.53675152109724l69.73399901705798,21.25039719838091a121.49999999999999,121.49999999999999 0 0 1 -24.135178104372415,43.8418788027431Z" style="pointer-events: all; stroke-width: 0; fill: rgb(255, 160, 122); fill-opacity: 1; stroke: rgb(68, 68, 68); stroke-opacity: 1;"/><g class="slicetext"><text data-notex="1" class="slicetext" transform="translate(585.473323061738,305.0547144661726)scale(0.6960899816757111)rotate(28.83300811984634)" text-anchor="middle" x="0" y="0" style="font-family: Arial; font-size: 12px; fill: rgb(128, 128, 128); fill-opacity: 1; white-space: pre;"><tspan class="line" dy="0em" x="0" y="0">medical</tspan><tspan class="line" dy="1.3em" x="0" y="0">6.6%</tspan></text></g></g><g class="slice"><path class="surface" d="M544.9893326780386,274.16693146558725a48.599999999999994,48.599999999999994 0 0 0 1.718939689023654,-8.008808749764176l72.31240855059346,9.237184073734646a121.49999999999999,121.49999999999999 0 0 1 -4.297349222559134,20.02202187441044Z" style="pointer-events: all; stroke-width: 0; fill: rgb(255, 131, 96); fill-opacity: 1; stroke: rgb(68, 68, 68); stroke-opacity: 1;"/><g class="slicetext"><text data-notex="1" class="slicetext" transform="translate(602.1993411436077,282.2571069914236)scale(0)rotate(12.11367784981428)" text-anchor="middle" x="0" y="0" style="font-family: Arial; font-size: 12px; fill: rgb(128, 128, 128); fill-opacity: 1; white-space: pre;"><tspan class="line" dy="0em" x="0" y="0">food_other</tspan><tspan class="line" dy="1.3em" x="0" y="0">2.69%</tspan></text></g></g><g class="slice"><path class="surface" d="M546.7082723670624,266.1581227158231a48.599999999999994,48.599999999999994 0 0 0 0.3540399532977745,-4.244533914695066l72.84346848054012,2.870383201692047a121.49999999999999,121.49999999999999 0 0 1 -0.8850998832444361,10.611334786737665Z" style="pointer-events: all; stroke-width: 0; fill: rgb(237, 106, 90); fill-opacity: 1; stroke: rgb(68, 68, 68); stroke-opacity: 1;"/><g class="slicetext"><text data-notex="1" class="slicetext" transform="translate(614.3477234851213,269.66295085317347)scale(0)rotate(-85.23195065147615)" text-anchor="middle" x="0" y="0" style="font-family: Arial; font-size: 12px; fill: rgb(128, 128, 128); fill-opacity: 1; white-space: pre;"><tspan class="line" dy="0em" x="0" y="0">other</tspan><tspan class="line" dy="1.3em" x="0" y="0">1.4%</tspan></text></g></g><g class="slice"><path class="surface" d="M547.0623123203601,261.913588801128a48.599999999999994,48.599999999999994 0 0 0 0.005578964656211838,-0.14725470848357566l72.85183692752443,2.649501138966684a121.49999999999999,121.49999999999999 0 0 1 -0.013947411640529594,0.3681367712089392Z" style="pointer-events: all; stroke-width: 0; fill: rgb(255, 99, 71); fill-opacity: 1; stroke: rgb(68, 68, 68); stroke-opacity: 1;"/><g class="slicetext"><text data-notex="1" class="slicetext" transform="translate(619.6146588050977,264.58860981615044)scale(0)rotate(2.169698495625312)" text-anchor="middle" x="0" y="0" style="font-family: Arial; font-size: 12px; fill: rgb(128, 128, 128); fill-opacity: 1; white-space: pre;"><tspan class="line" dy="0em" x="0" y="0">home</tspan><tspan class="line" dy="1.3em" x="0" y="0">0.0483%</tspan></text></g></g></g></g><g class="iciclelayer"/><g class="treemaplayer"/><g class="sunburstlayer"/><g class="glimages"/><defs id="topdefs-152a0b"><g class="clips"/></defs><g class="layer-above"><g class="imagelayer"/><g class="shapelayer"/></g><g class="infolayer"><g class="g-gtitle"><text class="gtitle" x="35" y="50" text-anchor="start" dy="0em" style="font-family: Arial; font-size: 14px; fill: rgb(128, 128, 128); opacity: 1; font-weight: normal; white-space: pre;">21-22 Year Total Budget vs Actual</text></g><g class="annotation" data-index="0" style="opacity: 1;"><g class="annotation-text-g" transform="rotate(0,210.5,260)"><g class="cursor-pointer" transform="translate(188,244)"><rect class="bg" x="0.5" y="0.5" width="44" height="32" style="stroke-width: 1px; stroke: rgb(0, 0, 0); stroke-opacity: 0; fill: rgb(0, 0, 0); fill-opacity: 0;"/><text class="annotation-text" text-anchor="middle" x="22.671875" y="13" style="font-family: Arial; font-size: 12px; fill: rgb(128, 128, 128); fill-opacity: 1; white-space: pre;"><tspan class="line" dy="0em" x="22.671875" y="13"><tspan style="font-weight:bold">Budget</tspan></tspan><tspan class="line" dy="1.3em" x="22.671875" y="13">$89988</tspan></text></g></g></g><g class="annotation" data-index="1" style="opacity: 1;"><g class="annotation-text-g" transform="rotate(0,490,260)"><g class="cursor-pointer" transform="translate(468,244)"><rect class="bg" x="0.5" y="0.5" width="43" height="32" style="stroke-width: 1px; stroke: rgb(0, 0, 0); stroke-opacity: 0; fill: rgb(0, 0, 0); fill-opacity: 0;"/><text class="annotation-text" text-anchor="middle" x="22.03125" y="13" style="font-family: Arial; font-size: 12px; fill: rgb(128, 128, 128); fill-opacity: 1; white-space: pre;"><tspan class="line" dy="0em" x="22.03125" y="13"><tspan style="font-weight:bold">Actual</tspan></tspan><tspan class="line" dy="1.3em" x="22.03125" y="13">$47661</tspan></text></g></g></g></g></svg>