<svg class="main-svg" xmlns="http://www.w3.org/2000/svg" xmlns:xlink="http://www.w3.org/1999/xlink" width="700" height="500" style="" viewBox="0 0 700 500"><rect x="0" y="0" width="700" height="500" style="fill: rgb(255, 255, 255); fill-opacity: 1;"/><defs id="defs-2a59f4"><g class="clips"/><g class="gradients"/><g class="patterns"/></defs><g class="bglayer"/><g class="layer-below"><g class="imagelayer"/><g class="shapelayer"/></g><g class="cartesianlayer"/><g class="polarlayer"/><g class="smithlayer"/><g class="ternarylayer"/><g class="geolayer"/><g class="funnelarealayer"/><g class="pielayer"><g class="trace" stroke-linejoin="round" style="opacity: 1;"><g class="slice"><path class="surface" d="M240.83377777454254,288.5449457169374a48.6,48.6 0 0 0 -39.33377777454254,-77.1449457169374l0,-72.89999999999999a121.5,121.5 0 0 1 98.33444443635635,192.8623642923435Z" style="pointer-events: all; stroke-width: 0; fill: rgb(72, 209, 204); fill-opacity: 1; stroke: rgb(68, 68, 68); stroke-opacity: 1;"/><g class="slicetext"><text data-notex="1" class="slicetext" transform="translate(277.2695877583634,218.8930915683642)scale(0.6960899816757111)" text-anchor="middle" x="0" y="0" style="font-family: Arial; font-size: 12px; fill: rgb(128, 128, 128); fill-opacity: 1; white-space: pre;"><tspan class="line" dy="0em" x="0" y="0">home</tspan><tspan class="line" dy="1.3em" x="0" y="0">35%</tspan></text></g></g><g class="slice"><path class="surface" d="M201.5,211.4a48.6,48.6 0 0 0 -39.32181584986223,20.038578497043893l-58.98272377479334,-42.84213225443416a121.5,121.5 0 0 1 98.30453962465558,-50.09644624260973Z" style="pointer-events: all; stroke-width: 0; fill: rgb(131, 216, 193); fill-opacity: 1; stroke: rgb(68, 68, 68); stroke-opacity: 1;"/><g class="slicetext"><text data-notex="1" class="slicetext" transform="translate(162.88334603403752,181.74793929090617)scale(0.6960899816757111)" text-anchor="middle" x="0" y="0" style="font-family: Arial; font-size: 12px; fill: rgb(128, 128, 128); fill-opacity: 1; white-space: pre;"><tspan class="line" dy="0em" x="0" y="0">food</tspan><tspan class="line" dy="1.3em" x="0" y="0">15%</tspan></text></g></g><g class="slice"><path class="surface" d="M162.17818415013778,231.4385784970439a48.6,48.6 0 0 0 -6.895754386744165,43.59126519556832l-69.3263553549096,22.54476553891831a121.5,121.5 0 0 1 17.23938596686041,-108.97816298892079Z" style="pointer-events: all; stroke-width: 0; fill: rgb(144, 238, 144); fill-opacity: 1; stroke: rgb(68, 68, 68); stroke-opacity: 1;"/><g class="slicetext"><text data-notex="1" class="slicetext" transform="translate(117.49459990417515,244.236702911788)scale(0.6960899816757111)" text-anchor="middle" x="0" y="0" style="font-family: Arial; font-size: 12px; fill: rgb(128, 128, 128); fill-opacity: 1; white-space: pre;"><tspan class="line" dy="0em" x="0" y="0">savings</tspan><tspan class="line" dy="1.3em" x="0" y="0">15%</tspan></text></g></g><g class="slice"><path class="surface" d="M155.2824297633936,275.0298436926122a48.6,48.6 0 0 0 17.664386000251188,24.29795398237535l-42.82977635453281,58.99169651248133a121.5,121.5 0 0 1 -44.16096500062797,-60.744884955938375Z" style="pointer-events: all; stroke-width: 0; fill: rgb(240, 242, 166); fill-opacity: 1; stroke: rgb(68, 68, 68); stroke-opacity: 1;"/><g class="slicetext"><text data-notex="1" class="slicetext" transform="translate(126.4271576536708,312.102874078247)scale(0.6960899816757111)" text-anchor="middle" x="0" y="0" style="font-family: Arial; font-size: 12px; fill: rgb(128, 128, 128); fill-opacity: 1; white-space: pre;"><tspan class="line" dy="0em" x="0" y="0">baby</tspan><tspan class="line" dy="1.3em" x="0" y="0">10%</tspan></text></g></g><g class="slice"><path class="surface" d="M172.9468157636448,299.32779767498755a48.6,48.6 0 0 0 28.573544470852923,9.272198060206199l0.030540351746565726,72.89999360279063a121.5,121.5 0 0 1 -71.4338611771323,-23.180495150515497Z" style="pointer-events: all; stroke-width: 0; fill: rgb(255, 215, 0); fill-opacity: 1; stroke: rgb(68, 68, 68); stroke-opacity: 1;"/><g class="slicetext"><text data-notex="1" class="slicetext" transform="translate(172.8518980370647,345.80865583207935)scale(0.6960899816757111)" text-anchor="middle" x="0" y="0" style="font-family: Arial; font-size: 12px; fill: rgb(128, 128, 128); fill-opacity: 1; white-space: pre;"><tspan class="line" dy="0em" x="0" y="0">lifestyle</tspan><tspan class="line" dy="1.3em" x="0" y="0">10%</tspan></text></g></g><g class="slice"><path class="surface" d="M201.5203602344977,308.5999957351938a48.6,48.6 0 0 0 15.019164204399358,-2.3855747753697756l22.5592866583456,69.32163143973597a121.5,121.5 0 0 1 -37.54791051099839,5.963936938424439Z" style="pointer-events: all; stroke-width: 0; fill: rgb(255, 170, 90); fill-opacity: 1; stroke: rgb(68, 68, 68); stroke-opacity: 1;"/><g class="slicetext"><text data-notex="1" class="slicetext" transform="translate(217.65284698313212,361.6955174547373)scale(0.6960899816757111)rotate(-9.025203360448018)" text-anchor="middle" x="0" y="0" style="font-family: Arial; font-size: 12px; fill: rgb(128, 128, 128); fill-opacity: 1; white-space: pre;"><tspan class="line" dy="0em" x="0" y="0">utility</tspan><tspan class="line" dy="1.3em" x="0" y="0">5%</tspan></text></g></g><g class="slice"><path class="surface" d="M216.53952443889708,306.214420959824a48.6,48.6 0 0 0 13.546601343346547,-6.9105609361348685l42.87918867336542,58.95579003553367a121.5,121.5 0 0 1 -33.866503358366366,17.27640234033717Z" style="pointer-events: all; stroke-width: 0; fill: rgb(255, 160, 122); fill-opacity: 1; stroke: rgb(68, 68, 68); stroke-opacity: 1;"/><g class="slicetext"><text data-notex="1" class="slicetext" transform="translate(250.07015437279168,349.76572243774285)scale(0.6960899816757111)rotate(62.972396319509244)" text-anchor="middle" x="0" y="0" style="font-family: Arial; font-size: 12px; fill: rgb(128, 128, 128); fill-opacity: 1; white-space: pre;"><tspan class="line" dy="0em" x="0" y="0">medical</tspan><tspan class="line" dy="1.3em" x="0" y="0">5%</tspan></text></g></g><g class="slice"><path class="surface" d="M230.0861257822436,299.30386002368914a48.6,48.6 0 0 0 10.747651992298888,-10.758914306751644l59.000666661813746,42.8174185754062a121.5,121.5 0 0 1 -26.869129980747218,26.897285766879108Z" style="pointer-events: all; stroke-width: 0; fill: rgb(255, 131, 96); fill-opacity: 1; stroke: rgb(68, 68, 68); stroke-opacity: 1;"/><g class="slicetext"><text data-notex="1" class="slicetext" transform="translate(269.86263527291504,324.7935999603107)scale(0.6960899816757111)rotate(44.96999599946662)" text-anchor="middle" x="0" y="0" style="font-family: Arial; font-size: 12px; fill: rgb(128, 128, 128); fill-opacity: 1; white-space: pre;"><tspan class="line" dy="0em" x="0" y="0">transportation</tspan><tspan class="line" dy="1.3em" x="0" y="0">5%</tspan></text></g></g><g class="slice"><path class="surface" d="M240.8337777745425,288.5449457169375a48.6,48.6 0 0 0 0,0l59.000666661813746,42.8174185754062a121.5,121.5 0 0 1 0,0Z" style="pointer-events: all; stroke-width: 0; fill: rgb(237, 106, 90); fill-opacity: 1; stroke: rgb(68, 68, 68); stroke-opacity: 1;"/><g class="slicetext"><text data-notex="1" class="slicetext" transform="translate(201.5,138.5)scale(0)" text-anchor="middle" x="0" y="0" style="font-family: Arial; font-size: 12px; fill: rgb(128, 128, 128); fill-opacity: 1; white-space: pre;"><tspan class="line" dy="0em" x="0" y="0">other</tspan><tspan class="line" dy="1.3em" x="0" y="0">0%</tspan></text></g></g><g class="slice"><path class="surface" d="M240.8337777745425,288.5449457169375a48.6,48.6 0 0 0 0,0l59.000666661813746,42.8174185754062a121.5,121.5 0 0 1 0,0Z" style="pointer-events: all; stroke-width: 0; fill: rgb(255, 99, 71); fill-opacity: 1; stroke: rgb(68, 68, 68); stroke-opacity: 1;"/><g class="slicetext"><text data-notex="1" class="slicetext" transform="translate(201.5,138.5)scale(0)" text-anchor="middle" x="0" y="0" style="font-family: Arial; font-size: 12px; fill: rgb(128, 128, 128); fill-opacity: 1; white-space: pre;"><tspan class="line" dy="0em" x="0" y="0">food_other</tspan><tspan class="line" dy="1.3em" x="0" y="0">0%</tspan></text></g></g></g><g class="trace" stroke-linejoin="round" style="opacity: 1;"><g class="slice"><path class="surface" d="M540.9430332704611,283.6759144871435a48.599999999999994,48.599999999999994 0 0 0 -42.44303327046111,-72.2759144871435l0,-72.89999999999999a121.49999999999999,121.49999999999999 0 0 1 106.10758317615276,180.68978621785874Z" style="pointer-events: all; stroke-width: 0; fill: rgb(72, 209, 204); fill-opacity: 1; stroke: rgb(68, 68, 68); stroke-opacity: 1;"/><g class="slicetext"><text data-notex="1" class="slicetext" transform="translate(571.839506483478,214.45800465206082)scale(0.6960899816757111)" text-anchor="middle" x="0" y="0" style="font-family: Arial; font-size: 12px; fill: rgb(128, 128, 128); fill-opacity: 1; white-space: pre;"><tspan class="line" dy="0em" x="0" y="0">home</tspan><tspan class="line" dy="1.3em" x="0" y="0">33.1%</tspan></text></g></g><g class="slice"><path class="surface" d="M498.5,211.4a48.599999999999994,48.599999999999994 0 0 0 -42.764909587615016,25.51055418674771l-64.14736438142252,-34.634168719878424a121.49999999999999,121.49999999999999 0 0 1 106.91227396903753,-63.77638546686928Z" style="pointer-events: all; stroke-width: 0; fill: rgb(131, 216, 193); fill-opacity: 1; stroke: rgb(68, 68, 68); stroke-opacity: 1;"/><g class="slicetext"><text data-notex="1" class="slicetext" transform="translate(454.92863836893514,184.48426671370325)scale(0.6960899816757111)" text-anchor="middle" x="0" y="0" style="font-family: Arial; font-size: 12px; fill: rgb(128, 128, 128); fill-opacity: 1; white-space: pre;"><tspan class="line" dy="0em" x="0" y="0">food</tspan><tspan class="line" dy="1.3em" x="0" y="0">17.1%</tspan></text></g></g><g class="slice"><path class="surface" d="M455.735090412385,236.91055418674773a48.599999999999994,48.599999999999994 0 0 0 -0.8223548355546768,44.586198593723225l-65.38089663475454,32.245129170706406a121.49999999999999,121.49999999999999 0 0 1 2.055887088886692,-111.46549648430806Z" style="pointer-events: all; stroke-width: 0; fill: rgb(144, 238, 144); fill-opacity: 1; stroke: rgb(68, 68, 68); stroke-opacity: 1;"/><g class="slicetext"><text data-notex="1" class="slicetext" transform="translate(398.2864023933024,258.151644697698)scale(0.6960899816757111)rotate(-88.94334747071878)" text-anchor="middle" x="0" y="0" style="font-family: Arial; font-size: 12px; fill: rgb(128, 128, 128); fill-opacity: 1; white-space: pre;"><tspan class="line" dy="0em" x="0" y="0">transportation</tspan><tspan class="line" dy="1.3em" x="0" y="0">15.2%</tspan></text></g></g><g class="slice"><path class="surface" d="M454.9127355768303,281.49675278047096a48.599999999999994,48.599999999999994 0 0 0 21.63210384667383,21.8614174306932l-32.932740864743785,65.03725531674621a121.49999999999999,121.49999999999999 0 0 1 -54.08025961668457,-54.653543576733Z" style="pointer-events: all; stroke-width: 0; fill: rgb(240, 242, 166); fill-opacity: 1; stroke: rgb(68, 68, 68); stroke-opacity: 1;"/><g class="slicetext"><text data-notex="1" class="slicetext" transform="translate(432.8933262075039,322.4441154951706)scale(0.6960899816757111)" text-anchor="middle" x="0" y="0" style="font-family: Arial; font-size: 12px; fill: rgb(128, 128, 128); fill-opacity: 1; white-space: pre;"><tspan class="line" dy="0em" x="0" y="0">utility</tspan><tspan class="line" dy="1.3em" x="0" y="0">10.2%</tspan></text></g></g><g class="slice"><path class="surface" d="M476.54483942350413,303.3581702111641a48.599999999999994,48.599999999999994 0 0 0 20.064434887262614,5.20503763560061l-2.8360885338498694,72.84481177014712a121.49999999999999,121.49999999999999 0 0 1 -50.16108721815653,-13.012594089001524Z" style="pointer-events: all; stroke-width: 0; fill: rgb(255, 215, 0); fill-opacity: 1; stroke: rgb(68, 68, 68); stroke-opacity: 1;"/><g class="slicetext"><text data-notex="1" class="slicetext" transform="translate(471.00925524601416,356.1176199621044)scale(0.6960899816757111)rotate(-75.45712439962927)" text-anchor="middle" x="0" y="0" style="font-family: Arial; font-size: 12px; fill: rgb(128, 128, 128); fill-opacity: 1; white-space: pre;"><tspan class="line" dy="0em" x="0" y="0">baby</tspan><tspan class="line" dy="1.3em" x="0" y="0">6.84%</tspan></text></g></g><g class="slice"><path class="surface" d="M496.60927431076675,308.5632078467647a48.599999999999994,48.599999999999994 0 0 0 17.652119001029664,-2.589971275136918l23.642089967694623,68.95985485744174a121.49999999999999,121.49999999999999 0 0 1 -44.13029750257416,6.474928187842295Z" style="pointer-events: all; stroke-width: 0; fill: rgb(255, 170, 90); fill-opacity: 1; stroke: rgb(68, 68, 68); stroke-opacity: 1;"/><g class="slicetext"><text data-notex="1" class="slicetext" transform="translate(515.4842001859154,358.7120567589827)scale(0.6960899816757111)rotate(81.65295059405116)" text-anchor="middle" x="0" y="0" style="font-family: Arial; font-size: 12px; fill: rgb(128, 128, 128); fill-opacity: 1; white-space: pre;"><tspan class="line" dy="0em" x="0" y="0">lifestyle</tspan><tspan class="line" dy="1.3em" x="0" y="0">5.88%</tspan></text></g></g><g class="slice"><path class="surface" d="M514.2613933117964,305.9732365716278a48.599999999999994,48.599999999999994 0 0 0 12.185317982651117,-6.212183670267206l41.9200669416713,59.641579352040935a121.49999999999999,121.49999999999999 0 0 1 -30.46329495662779,15.530459175668014Z" style="pointer-events: all; stroke-width: 0; fill: rgb(255, 160, 122); fill-opacity: 1; stroke: rgb(68, 68, 68); stroke-opacity: 1;"/><g class="slicetext"><text data-notex="1" class="slicetext" transform="translate(547.8008437719176,351.25666536639864)scale(0.6960899816757111)rotate(62.98710782799208)" text-anchor="middle" x="0" y="0" style="font-family: Arial; font-size: 12px; fill: rgb(128, 128, 128); fill-opacity: 1; white-space: pre;"><tspan class="line" dy="0em" x="0" y="0">savings</tspan><tspan class="line" dy="1.3em" x="0" y="0">4.49%</tspan></text></g></g><g class="slice"><path class="surface" d="M526.4467112944475,299.76105290136064a48.599999999999994,48.599999999999994 0 0 0 9.829283555551735,-9.184358948403116l56.6639922749989,45.86504092943626a121.49999999999999,121.49999999999999 0 0 1 -24.573208888879336,22.96089737100779Z" style="pointer-events: all; stroke-width: 0; fill: rgb(255, 131, 96); fill-opacity: 1; stroke: rgb(68, 68, 68); stroke-opacity: 1;"/><g class="slicetext"><text data-notex="1" class="slicetext" transform="translate(571.1155672529258,334.0903753223041)scale(0.6960899816757111)rotate(46.942673370221655)" text-anchor="middle" x="0" y="0" style="font-family: Arial; font-size: 12px; fill: rgb(128, 128, 128); fill-opacity: 1; white-space: pre;"><tspan class="line" dy="0em" x="0" y="0">medical</tspan><tspan class="line" dy="1.3em" x="0" y="0">4.42%</tspan></text></g></g><g class="slice"><path class="surface" d="M536.2759948499993,290.5766939529575a48.599999999999994,48.599999999999994 0 0 0 3.205499235449196,-4.452430470050433l61.47224112817269,39.186395224360616a121.49999999999999,121.49999999999999 0 0 1 -8.01374808862299,11.131076175126083Z" style="pointer-events: all; stroke-width: 0; fill: rgb(237, 106, 90); fill-opacity: 1; stroke: rgb(68, 68, 68); stroke-opacity: 1;"/><g class="slicetext"><text data-notex="1" class="slicetext" transform="translate(587.999725399471,324.4347628268898)scale(0)rotate(35.751762491924865)" text-anchor="middle" x="0" y="0" style="font-family: Arial; font-size: 12px; fill: rgb(128, 128, 128); fill-opacity: 1; white-space: pre;"><tspan class="line" dy="0em" x="0" y="0">food_other</tspan><tspan class="line" dy="1.3em" x="0" y="0">1.8%</tspan></text></g></g><g class="slice"><path class="surface" d="M539.4814940854485,286.12426348290705a48.599999999999994,48.599999999999994 0 0 0 1.4615391850125776,-2.4483489957634763l63.66454990569156,35.5138717307154a121.49999999999999,121.49999999999999 0 0 1 -3.6538479625314437,6.12087248940869Z" style="pointer-events: all; stroke-width: 0; fill: rgb(255, 99, 71); fill-opacity: 1; stroke: rgb(68, 68, 68); stroke-opacity: 1;"/><g class="slicetext"><text data-notex="1" class="slicetext" transform="translate(598.8307972734162,319.89235682183664)scale(0)rotate(30.835041990843592)" text-anchor="middle" x="0" y="0" style="font-family: Arial; font-size: 12px; fill: rgb(128, 128, 128); fill-opacity: 1; white-space: pre;"><tspan class="line" dy="0em" x="0" y="0">other</tspan><tspan class="line" dy="1.3em" x="0" y="0">0.934%</tspan></text></g></g></g></g><g class="iciclelayer"/><g class="treemaplayer"/><g class="sunburstlayer"/><g class="glimages"/><defs id="topdefs-2a59f4"><g class="clips"/></defs><g class="layer-above"><g class="imagelayer"/><g class="shapelayer"/></g><g class="infolayer"><g class="g-gtitle"><text class="gtitle" x="35" y="50" text-anchor="start" dy="0em" style="font-family: Arial; font-size: 14px; fill: rgb(128, 128, 128); opacity: 1; font-weight: normal; white-space: pre;">21-22 Year Total Budget vs Actual</text></g><g class="annotation" data-index="0" style="opacity: 1;"><g class="annotation-text-g" transform="rotate(0,210.5,260)"><g class="cursor-pointer" transform="translate(188,244)"><rect class="bg" x="0.5" y="0.5" width="44" height="32" style="stroke-width: 1px; stroke: rgb(0, 0, 0); stroke-opacity: 0; fill: rgb(0, 0, 0); fill-opacity: 0;"/><text class="annotation-text" text-anchor="middle" x="22.671875" y="13" style="font-family: Arial; font-size: 12px; fill: rgb(128, 128, 128); fill-opacity: 1; white-space: pre;"><tspan class="line" dy="0em" x="22.671875" y="13"><tspan style="font-weight:bold">Budget</tspan></tspan><tspan class="line" dy="1.3em" x="22.671875" y="13">$89988</tspan></text></g></g></g><g class="annotation" data-index="1" style="opacity: 1;"><g class="annotation-text-g" transform="rotate(0,490,260)"><g class="cursor-pointer" transform="translate(468,244)"><rect class="bg" x="0.5" y="0.5" width="43" height="32" style="stroke-width: 1px; stroke: rgb(0, 0, 0); stroke-opacity: 0; fill: rgb(0, 0, 0); fill-opacity: 0;"/><text class="annotation-text" text-anchor="middle" x="22.03125" y="13" style="font-family: Arial; font-size: 12px; fill: rgb(128, 128, 128); fill-opacity: 1; white-space: pre;"><tspan class="line" dy="0em" x="22.03125" y="13"><tspan style="font-weight:bold">Actual</tspan></tspan><tspan class="line" dy="1.3em" x="22.03125" y="13">$71206</tspan></text></g></g></g></g></svg>