<svg class="main-svg" xmlns="http://www.w3.org/2000/svg" xmlns:xlink="http://www.w3.org/1999/xlink" width="700" height="500" style="" viewBox="0 0 700 500"><rect x="0" y="0" width="700" height="500" style="fill: rgb(255, 255, 255); fill-opacity: 1;"/><defs id="defs-28e046"><g class="clips"/><g class="gradients"/></defs><g class="bglayer"/><g class="layer-below"><g class="imagelayer"/><g class="shapelayer"/></g><g class="cartesianlayer"/><g class="polarlayer"/><g class="ternarylayer"/><g class="geolayer"/><g class="funnelarealayer"/><g class="pielayer"><g class="trace" stroke-linejoin="round" style="opacity: 1;"><g class="slice"><path class="surface" d="M225.35457254429267,258.0278785031945a42.120000000000005,42.120000000000005 0 0 0 -40.054572544292654,-55.14787850319449l0,-63.17999999999999a105.3,105.3 0 0 1 100.13643136073163,137.86969625798622Z" style="pointer-events: all; stroke-width: 1; fill: rgb(237, 106, 90); fill-opacity: 1; stroke: rgb(211, 211, 211); stroke-opacity: 1;"/><g class="slicetext"><text data-notex="1" class="slicetext" transform="translate(244.9391763768721,198.62865587592128)" text-anchor="middle" x="0" y="0" style="font-family: 'Open Sans', verdana, arial, sans-serif; font-size: 12px; fill: rgb(68, 68, 68); fill-opacity: 1; white-space: pre;"><tspan class="line" dy="0em" x="0" y="0">home</tspan><tspan class="line" dy="1.3em" x="0" y="0">30%</tspan></text></g></g><g class="slice"><path class="surface" d="M185.3,202.88a42.120000000000005,42.120000000000005 0 0 0 -34.07952935821262,17.367624786240736l-51.11929403731893,-37.1285628206389a105.3,105.3 0 0 1 85.19882339553155,-43.419061965601834Z" style="pointer-events: all; stroke-width: 1; fill: rgb(255, 170, 90); fill-opacity: 1; stroke: rgb(211, 211, 211); stroke-opacity: 1;"/><g class="slicetext"><text data-notex="1" class="slicetext" transform="translate(151.83140770633491,176.2717452915681)" text-anchor="middle" x="0" y="0" style="font-family: 'Open Sans', verdana, arial, sans-serif; font-size: 12px; fill: rgb(68, 68, 68); fill-opacity: 1; white-space: pre;"><tspan class="line" dy="0em" x="0" y="0">lifestyle</tspan><tspan class="line" dy="1.3em" x="0" y="0">15%</tspan></text></g></g><g class="slice"><path class="surface" d="M151.2204706417874,220.24762478624075a42.120000000000005,42.120000000000005 0 0 0 -5.975043186080035,37.78025371695375l-60.08185881643898,19.54181775479173a105.3,105.3 0 0 1 14.937607965200087,-94.45063429238438Z" style="pointer-events: all; stroke-width: 1; fill: rgb(255, 215, 0); fill-opacity: 1; stroke: rgb(211, 211, 211); stroke-opacity: 1;"/><g class="slicetext"><text data-notex="1" class="slicetext" transform="translate(112.494885658418,230.4309985513026)" text-anchor="middle" x="0" y="0" style="font-family: 'Open Sans', verdana, arial, sans-serif; font-size: 12px; fill: rgb(68, 68, 68); fill-opacity: 1; white-space: pre;"><tspan class="line" dy="0em" x="0" y="0">food</tspan><tspan class="line" dy="1.3em" x="0" y="0">15%</tspan></text></g></g><g class="slice"><path class="surface" d="M145.24542745570736,258.0278785031945a42.120000000000005,42.120000000000005 0 0 0 15.302197330533382,21.051650855018128l-37.12856282063891,51.119294037318916a105.3,105.3 0 0 1 -38.25549332633345,-52.62912713754532Z" style="pointer-events: all; stroke-width: 1; fill: rgb(144, 238, 144); fill-opacity: 1; stroke: rgb(211, 211, 211); stroke-opacity: 1;"/><g class="slicetext"><text data-notex="1" class="slicetext" transform="translate(120.22815419309497,289.24527163655125)" text-anchor="middle" x="0" y="0" style="font-family: 'Open Sans', verdana, arial, sans-serif; font-size: 12px; fill: rgb(68, 68, 68); fill-opacity: 1; white-space: pre;"><tspan class="line" dy="0em" x="0" y="0">debt</tspan><tspan class="line" dy="1.3em" x="0" y="0">10%</tspan></text></g></g><g class="slice"><path class="surface" d="M160.54762478624073,279.0795293582126a42.120000000000005,42.120000000000005 0 0 0 24.75237521375925,8.040470641787385l-3.579487475533994e-14,63.17999999999999a105.3,105.3 0 0 1 -61.88093803439813,-20.101176604468463Z" style="pointer-events: all; stroke-width: 1; fill: rgb(72, 209, 204); fill-opacity: 1; stroke: rgb(211, 211, 211); stroke-opacity: 1;"/><g class="slicetext"><text data-notex="1" class="slicetext" transform="translate(158.21469841667803,318.4939099932743)rotate(-72.00432069131057)" text-anchor="middle" x="0" y="0" style="font-family: 'Open Sans', verdana, arial, sans-serif; font-size: 12px; fill: rgb(68, 68, 68); fill-opacity: 1; white-space: pre;"><tspan class="line" dy="0em" x="0" y="0">savings</tspan><tspan class="line" dy="1.3em" x="0" y="0">10%</tspan></text></g></g><g class="slice"><path class="surface" d="M185.29999999999998,287.12a42.120000000000005,42.120000000000005 0 0 0 24.75237521375926,-8.040470641787357l37.128562820638855,51.11929403731896a105.3,105.3 0 0 1 -61.88093803439815,20.101176604468392Z" style="pointer-events: all; stroke-width: 1; fill: rgb(173, 216, 230); fill-opacity: 1; stroke: rgb(211, 211, 211); stroke-opacity: 1;"/><g class="slicetext"><text data-notex="1" class="slicetext" transform="translate(210.15355041372518,318.45630702281005)" text-anchor="middle" x="0" y="0" style="font-family: 'Open Sans', verdana, arial, sans-serif; font-size: 12px; fill: rgb(68, 68, 68); fill-opacity: 1; white-space: pre;"><tspan class="line" dy="0em" x="0" y="0">utility</tspan><tspan class="line" dy="1.3em" x="0" y="0">10%</tspan></text></g></g><g class="slice"><path class="surface" d="M210.05237521375926,279.07952935821265a42.120000000000005,42.120000000000005 0 0 0 15.302197330533412,-21.05165085501813l60.08185881643897,19.54181775479177a105.3,105.3 0 0 1 -38.25549332633353,52.629127137545325Z" style="pointer-events: all; stroke-width: 1; fill: rgb(211, 211, 211); fill-opacity: 1; stroke: rgb(211, 211, 211); stroke-opacity: 1;"/><g class="slicetext"><text data-notex="1" class="slicetext" transform="translate(320.8153287926134,336.17402379921543)" text-anchor="middle" x="0" y="0" style="font-family: 'Open Sans', verdana, arial, sans-serif; font-size: 12px; fill: rgb(42, 63, 95); fill-opacity: 1; white-space: pre;"><tspan class="line" dy="0em" x="0" y="0">transportation</tspan><tspan class="line" dy="1.3em" x="0" y="0">10%</tspan></text></g><path class="textline" stroke-width="1.5" d="M270.4754850426134,306.9130579745141V339.22871129921543h7.52734375" fill="none" style="stroke: rgb(42, 63, 95); stroke-opacity: 1;"/></g><g class="slice"><path class="surface" d="M225.35457254429267,258.02787850319453a42.120000000000005,42.120000000000005 0 0 0 0,0l60.08185881643897,19.54181775479177a105.3,105.3 0 0 1 0,0Z" style="pointer-events: all; stroke-width: 1; fill: rgb(255, 160, 122); fill-opacity: 1; stroke: rgb(211, 211, 211); stroke-opacity: 1;"/><g class="slicetext"><text data-notex="1" class="slicetext" transform="translate(317.1669001107316,275.95527379921543)" text-anchor="middle" x="0" y="0" style="font-family: 'Open Sans', verdana, arial, sans-serif; font-size: 12px; fill: rgb(42, 63, 95); fill-opacity: 1; white-space: pre;"><tspan class="line" dy="0em" x="0" y="0">unspent</tspan><tspan class="line" dy="1.3em" x="0" y="0">0%</tspan></text></g></g><g class="slice"><path class="surface" d="M225.35457254429267,258.02787850319453a42.120000000000005,42.120000000000005 0 0 0 0,0l60.08185881643897,19.54181775479177a105.3,105.3 0 0 1 0,0Z" style="pointer-events: all; stroke-width: 1; fill: rgb(255, 255, 255); fill-opacity: 1; stroke: rgb(211, 211, 211); stroke-opacity: 1;"/><g class="slicetext"><text data-notex="1" class="slicetext" transform="translate(317.2137751107316,306.06464879921543)" text-anchor="middle" x="0" y="0" style="font-family: 'Open Sans', verdana, arial, sans-serif; font-size: 12px; fill: rgb(42, 63, 95); fill-opacity: 1; white-space: pre;"><tspan class="line" dy="0em" x="0" y="0">overage</tspan><tspan class="line" dy="1.3em" x="0" y="0">0%</tspan></text></g><path class="textline" stroke-width="1.5" d="M285.4364313607316,277.56969625798627V309.11933629921543h7.52734375" fill="none" style="stroke: rgb(42, 63, 95); stroke-opacity: 1;"/></g></g><g class="trace" stroke-linejoin="round" style="opacity: 1;"><g class="slice"><path class="surface" d="M482.7545725442926,258.0278785031945a42.12,42.12 0 0 0 -40.054572544292654,-55.14787850319448l0,-63.179999999999986a105.29999999999998,105.29999999999998 0 0 1 100.13643136073162,137.8696962579862Z" style="pointer-events: all; stroke-width: 1; fill: rgb(237, 106, 90); fill-opacity: 1; stroke: rgb(211, 211, 211); stroke-opacity: 1;"/><g class="slicetext"><text data-notex="1" class="slicetext" transform="translate(502.33917637687205,198.6286558759213)" text-anchor="middle" x="0" y="0" style="font-family: 'Open Sans', verdana, arial, sans-serif; font-size: 12px; fill: rgb(68, 68, 68); fill-opacity: 1; white-space: pre;"><tspan class="line" dy="0em" x="0" y="0">home</tspan><tspan class="line" dy="1.3em" x="0" y="0">30%</tspan></text></g></g><g class="slice"><path class="surface" d="M442.7,202.88a42.12,42.12 0 0 0 -41.367736449165136,34.195053244821494l-62.05160467374769,-11.887420132767755a105.29999999999998,105.29999999999998 0 0 1 103.41934112291283,-85.48763311205373Z" style="pointer-events: all; stroke-width: 1; fill: rgb(255, 160, 122); fill-opacity: 1; stroke: rgb(211, 211, 211); stroke-opacity: 1;"/><g class="slicetext"><text data-notex="1" class="slicetext" transform="translate(395.7377523659555,185.13236153669692)" text-anchor="middle" x="0" y="0" style="font-family: 'Open Sans', verdana, arial, sans-serif; font-size: 12px; fill: rgb(68, 68, 68); fill-opacity: 1; white-space: pre;"><tspan class="line" dy="0em" x="0" y="0">unspent</tspan><tspan class="line" dy="1.3em" x="0" y="0">22%</tspan></text></g></g><g class="slice"><path class="surface" d="M401.33226355083485,237.0750532448215a42.12,42.12 0 0 0 16.589668804130262,41.98580058737237l-37.1671014675523,51.09128074829079a105.29999999999998,105.29999999999998 0 0 1 -41.47417201032565,-104.96450146843091Z" style="pointer-events: all; stroke-width: 1; fill: rgb(255, 170, 90); fill-opacity: 1; stroke: rgb(211, 211, 211); stroke-opacity: 1;"/><g class="slicetext"><text data-notex="1" class="slicetext" transform="translate(374.147366518798,269.03221972086925)" text-anchor="middle" x="0" y="0" style="font-family: 'Open Sans', verdana, arial, sans-serif; font-size: 12px; fill: rgb(68, 68, 68); fill-opacity: 1; white-space: pre;"><tspan class="line" dy="0em" x="0" y="0">lifestyle</tspan><tspan class="line" dy="1.3em" x="0" y="0">18%</tspan></text></g></g><g class="slice"><path class="surface" d="M417.9219323549651,279.06085383219386a42.12,42.12 0 0 0 23.698250291723383,8.04530242177317l-1.6197260299672334,63.159234380950544a105.29999999999998,105.29999999999998 0 0 1 -59.24562572930845,-20.113256054432924Z" style="pointer-events: all; stroke-width: 1; fill: rgb(255, 215, 0); fill-opacity: 1; stroke: rgb(211, 211, 211); stroke-opacity: 1;"/><g class="slicetext"><text data-notex="1" class="slicetext" transform="translate(416.60252824144186,318.8180495697378)" text-anchor="middle" x="0" y="0" style="font-family: 'Open Sans', verdana, arial, sans-serif; font-size: 12px; fill: rgb(68, 68, 68); fill-opacity: 1; white-space: pre;"><tspan class="line" dy="0em" x="0" y="0">food</tspan><tspan class="line" dy="1.3em" x="0" y="0">9.6%</tspan></text></g></g><g class="slice"><path class="surface" d="M441.6201826466885,287.106156253967a42.12,42.12 0 0 0 15.578524268817754,-2.5602095871055783l21.748060373259396,59.31892000029218a105.29999999999998,105.29999999999998 0 0 1 -38.94631067204438,6.400523967763945Z" style="pointer-events: all; stroke-width: 1; fill: rgb(144, 238, 144); fill-opacity: 1; stroke: rgb(211, 211, 211); stroke-opacity: 1;"/><g class="slicetext"><text data-notex="1" class="slicetext" transform="translate(480.72539322517736,396.3927737992154)" text-anchor="middle" x="0" y="0" style="font-family: 'Open Sans', verdana, arial, sans-serif; font-size: 12px; fill: rgb(42, 63, 95); fill-opacity: 1; white-space: pre;"><tspan class="line" dy="0em" x="0" y="0">debt</tspan><tspan class="line" dy="1.3em" x="0" y="0">6%</tspan></text></g><path class="textline" stroke-width="1.5" d="M459.77617447517736,348.90618011116226V399.4474612992154h7.52734375" fill="none" style="stroke: rgb(42, 63, 95); stroke-opacity: 1;"/></g><g class="slice"><path class="surface" d="M457.19870691550625,284.5459466668615a42.12,42.12 0 0 0 13.541579937030363,-8.116076905319948l42.06043027880494,47.14480464231226a105.29999999999998,105.29999999999998 0 0 1 -33.85394984257591,20.290192263299872Z" style="pointer-events: all; stroke-width: 1; fill: rgb(72, 209, 204); fill-opacity: 1; stroke: rgb(211, 211, 211); stroke-opacity: 1;"/><g class="slicetext"><text data-notex="1" class="slicetext" transform="translate(526.9539842708438,366.2833987992154)" text-anchor="middle" x="0" y="0" style="font-family: 'Open Sans', verdana, arial, sans-serif; font-size: 12px; fill: rgb(42, 63, 95); fill-opacity: 1; white-space: pre;"><tspan class="line" dy="0em" x="0" y="0">savings</tspan><tspan class="line" dy="1.3em" x="0" y="0">6%</tspan></text></g><path class="textline" stroke-width="1.5" d="M496.83289052084376,335.3200983384005V369.3380862992154h7.52734375" fill="none" style="stroke: rgb(42, 63, 95); stroke-opacity: 1;"/></g><g class="slice"><path class="surface" d="M470.7402868525366,276.4298697615415a42.12,42.12 0 0 0 9.602159428786189,-12.53170482529107l56.46366942198422,28.347247404375654a105.29999999999998,105.29999999999998 0 0 1 -24.005398571965472,31.329262063227674Z" style="pointer-events: all; stroke-width: 1; fill: rgb(173, 216, 230); fill-opacity: 1; stroke: rgb(211, 211, 211); stroke-opacity: 1;"/><g class="slicetext"><text data-notex="1" class="slicetext" transform="translate(550.827367131236,336.1740237992154)" text-anchor="middle" x="0" y="0" style="font-family: 'Open Sans', verdana, arial, sans-serif; font-size: 12px; fill: rgb(42, 63, 95); fill-opacity: 1; white-space: pre;"><tspan class="line" dy="0em" x="0" y="0">utility</tspan><tspan class="line" dy="1.3em" x="0" y="0">6%</tspan></text></g><path class="textline" stroke-width="1.5" d="M526.284398381236,309.04481514726103V339.2287112992154h7.52734375" fill="none" style="stroke: rgb(42, 63, 95); stroke-opacity: 1;"/></g><g class="slice"><path class="surface" d="M480.3424462813228,263.89816493625045a42.12,42.12 0 0 0 2.4121262629698323,-5.870286433055961l60.08185881643897,19.541817754791712a105.29999999999998,105.29999999999998 0 0 1 -6.03031565742458,14.675716082639902Z" style="pointer-events: all; stroke-width: 1; fill: rgb(211, 211, 211); fill-opacity: 1; stroke: rgb(211, 211, 211); stroke-opacity: 1;"/><g class="slicetext"><text data-notex="1" class="slicetext" transform="translate(590.4379234698583,306.0646487992154)" text-anchor="middle" x="0" y="0" style="font-family: 'Open Sans', verdana, arial, sans-serif; font-size: 12px; fill: rgb(42, 63, 95); fill-opacity: 1; white-space: pre;"><tspan class="line" dy="0em" x="0" y="0">transportation</tspan><tspan class="line" dy="1.3em" x="0" y="0">2.4%</tspan></text></g><path class="textline" stroke-width="1.5" d="M540.0980797198583,285.02129516749943V309.1193362992154h7.52734375" fill="none" style="stroke: rgb(42, 63, 95); stroke-opacity: 1;"/></g><g class="slice"><path class="surface" d="M482.7545725442926,258.0278785031945a42.12,42.12 0 0 0 0,0l60.08185881643897,19.541817754791712a105.29999999999998,105.29999999999998 0 0 1 0,0Z" style="pointer-events: all; stroke-width: 1; fill: rgb(255, 255, 255); fill-opacity: 1; stroke: rgb(211, 211, 211); stroke-opacity: 1;"/><g class="slicetext"><text data-notex="1" class="slicetext" transform="translate(574.6137751107316,275.9552737992154)" text-anchor="middle" x="0" y="0" style="font-family: 'Open Sans', verdana, arial, sans-serif; font-size: 12px; fill: rgb(42, 63, 95); fill-opacity: 1; white-space: pre;"><tspan class="line" dy="0em" x="0" y="0">overage</tspan><tspan class="line" dy="1.3em" x="0" y="0">0%</tspan></text></g></g></g></g><g class="treemaplayer"/><g class="sunburstlayer"/><g class="glimages"/><defs id="topdefs-28e046"><g class="clips"/><clipPath id="legend28e046"><rect width="131" height="181" x="0" y="0"/></clipPath></defs><g class="layer-above"><g class="imagelayer"/><g class="shapelayer"/></g><g class="infolayer"><g class="legend" pointer-events="all" transform="translate(557.36,100)"><rect class="bg" shape-rendering="crispEdges" width="131" height="181" x="0" y="0" style="stroke: rgb(68, 68, 68); stroke-opacity: 1; fill: rgb(255, 255, 255); fill-opacity: 1; stroke-width: 0px;"/><g class="scrollbox" transform="" clip-path="url('#legend28e046')"><g class="groups"><g class="traces" transform="translate(0,14.5)" style="opacity: 1;"><text class="legendtext" text-anchor="start" x="40" y="4.680000000000001" style="font-family: 'Open Sans', verdana, arial, sans-serif; font-size: 12px; fill: rgb(42, 63, 95); fill-opacity: 1; white-space: pre;">home</text><g class="layers" style="opacity: 1;"><g class="legendfill"/><g class="legendlines"/><g class="legendsymbols"><g class="legendpoints"><path class="legendpie" d="M6,6H-6V-6H6Z" transform="translate(20,0)" style="stroke-width: 1; fill: rgb(237, 106, 90); fill-opacity: 1; stroke: rgb(211, 211, 211); stroke-opacity: 1;"/></g></g></g><rect class="legendtoggle" x="0" y="-9.5" width="125.625" height="19" style="fill: rgb(0, 0, 0); fill-opacity: 0;"/></g><g class="traces" transform="translate(0,33.5)" style="opacity: 1;"><text class="legendtext" text-anchor="start" x="40" y="4.680000000000001" style="font-family: 'Open Sans', verdana, arial, sans-serif; font-size: 12px; fill: rgb(42, 63, 95); fill-opacity: 1; white-space: pre;">lifestyle</text><g class="layers" style="opacity: 1;"><g class="legendfill"/><g class="legendlines"/><g class="legendsymbols"><g class="legendpoints"><path class="legendpie" d="M6,6H-6V-6H6Z" transform="translate(20,0)" style="stroke-width: 1; fill: rgb(255, 170, 90); fill-opacity: 1; stroke: rgb(211, 211, 211); stroke-opacity: 1;"/></g></g></g><rect class="legendtoggle" x="0" y="-9.5" width="125.625" height="19" style="fill: rgb(0, 0, 0); fill-opacity: 0;"/></g><g class="traces" transform="translate(0,52.5)" style="opacity: 1;"><text class="legendtext" text-anchor="start" x="40" y="4.680000000000001" style="font-family: 'Open Sans', verdana, arial, sans-serif; font-size: 12px; fill: rgb(42, 63, 95); fill-opacity: 1; white-space: pre;">food</text><g class="layers" style="opacity: 1;"><g class="legendfill"/><g class="legendlines"/><g class="legendsymbols"><g class="legendpoints"><path class="legendpie" d="M6,6H-6V-6H6Z" transform="translate(20,0)" style="stroke-width: 1; fill: rgb(255, 215, 0); fill-opacity: 1; stroke: rgb(211, 211, 211); stroke-opacity: 1;"/></g></g></g><rect class="legendtoggle" x="0" y="-9.5" width="125.625" height="19" style="fill: rgb(0, 0, 0); fill-opacity: 0;"/></g><g class="traces" transform="translate(0,71.5)" style="opacity: 1;"><text class="legendtext" text-anchor="start" x="40" y="4.680000000000001" style="font-family: 'Open Sans', verdana, arial, sans-serif; font-size: 12px; fill: rgb(42, 63, 95); fill-opacity: 1; white-space: pre;">debt</text><g class="layers" style="opacity: 1;"><g class="legendfill"/><g class="legendlines"/><g class="legendsymbols"><g class="legendpoints"><path class="legendpie" d="M6,6H-6V-6H6Z" transform="translate(20,0)" style="stroke-width: 1; fill: rgb(144, 238, 144); fill-opacity: 1; stroke: rgb(211, 211, 211); stroke-opacity: 1;"/></g></g></g><rect class="legendtoggle" x="0" y="-9.5" width="125.625" height="19" style="fill: rgb(0, 0, 0); fill-opacity: 0;"/></g><g class="traces" transform="translate(0,90.5)" style="opacity: 1;"><text class="legendtext" text-anchor="start" x="40" y="4.680000000000001" style="font-family: 'Open Sans', verdana, arial, sans-serif; font-size: 12px; fill: rgb(42, 63, 95); fill-opacity: 1; white-space: pre;">savings</text><g class="layers" style="opacity: 1;"><g class="legendfill"/><g class="legendlines"/><g class="legendsymbols"><g class="legendpoints"><path class="legendpie" d="M6,6H-6V-6H6Z" transform="translate(20,0)" style="stroke-width: 1; fill: rgb(72, 209, 204); fill-opacity: 1; stroke: rgb(211, 211, 211); stroke-opacity: 1;"/></g></g></g><rect class="legendtoggle" x="0" y="-9.5" width="125.625" height="19" style="fill: rgb(0, 0, 0); fill-opacity: 0;"/></g><g class="traces" transform="translate(0,109.5)" style="opacity: 1;"><text class="legendtext" text-anchor="start" x="40" y="4.680000000000001" style="font-family: 'Open Sans', verdana, arial, sans-serif; font-size: 12px; fill: rgb(42, 63, 95); fill-opacity: 1; white-space: pre;">utility</text><g class="layers" style="opacity: 1;"><g class="legendfill"/><g class="legendlines"/><g class="legendsymbols"><g class="legendpoints"><path class="legendpie" d="M6,6H-6V-6H6Z" transform="translate(20,0)" style="stroke-width: 1; fill: rgb(173, 216, 230); fill-opacity: 1; stroke: rgb(211, 211, 211); stroke-opacity: 1;"/></g></g></g><rect class="legendtoggle" x="0" y="-9.5" width="125.625" height="19" style="fill: rgb(0, 0, 0); fill-opacity: 0;"/></g><g class="traces" transform="translate(0,128.5)" style="opacity: 1;"><text class="legendtext" text-anchor="start" x="40" y="4.680000000000001" style="font-family: 'Open Sans', verdana, arial, sans-serif; font-size: 12px; fill: rgb(42, 63, 95); fill-opacity: 1; white-space: pre;">transportation</text><g class="layers" style="opacity: 1;"><g class="legendfill"/><g class="legendlines"/><g class="legendsymbols"><g class="legendpoints"><path class="legendpie" d="M6,6H-6V-6H6Z" transform="translate(20,0)" style="stroke-width: 1; fill: rgb(211, 211, 211); fill-opacity: 1; stroke: rgb(211, 211, 211); stroke-opacity: 1;"/></g></g></g><rect class="legendtoggle" x="0" y="-9.5" width="125.625" height="19" style="fill: rgb(0, 0, 0); fill-opacity: 0;"/></g><g class="traces" transform="translate(0,147.5)" style="opacity: 1;"><text class="legendtext" text-anchor="start" x="40" y="4.680000000000001" style="font-family: 'Open Sans', verdana, arial, sans-serif; font-size: 12px; fill: rgb(42, 63, 95); fill-opacity: 1; white-space: pre;">unspent</text><g class="layers" style="opacity: 1;"><g class="legendfill"/><g class="legendlines"/><g class="legendsymbols"><g class="legendpoints"><path class="legendpie" d="M6,6H-6V-6H6Z" transform="translate(20,0)" style="stroke-width: 1; fill: rgb(255, 160, 122); fill-opacity: 1; stroke: rgb(211, 211, 211); stroke-opacity: 1;"/></g></g></g><rect class="legendtoggle" x="0" y="-9.5" width="125.625" height="19" style="fill: rgb(0, 0, 0); fill-opacity: 0;"/></g><g class="traces" transform="translate(0,166.5)" style="opacity: 1;"><text class="legendtext" text-anchor="start" x="40" y="4.680000000000001" style="font-family: 'Open Sans', verdana, arial, sans-serif; font-size: 12px; fill: rgb(42, 63, 95); fill-opacity: 1; white-space: pre;">overage</text><g class="layers" style="opacity: 1;"><g class="legendfill"/><g class="legendlines"/><g class="legendsymbols"><g class="legendpoints"><path class="legendpie" d="M6,6H-6V-6H6Z" transform="translate(20,0)" style="stroke-width: 1; fill: rgb(255, 255, 255); fill-opacity: 1; stroke: rgb(211, 211, 211); stroke-opacity: 1;"/></g></g></g><rect class="legendtoggle" x="0" y="-9.5" width="125.625" height="19" style="fill: rgb(0, 0, 0); fill-opacity: 0;"/></g></g></g><rect class="scrollbar" rx="20" ry="3" width="0" height="0" x="0" y="0" style="fill: rgb(128, 139, 164); fill-opacity: 1;"/></g><g class="g-gtitle"><text class="gtitle" x="35" y="50" text-anchor="start" dy="0em" style="font-family: 'Open Sans', verdana, arial, sans-serif; font-size: 17px; fill: rgb(42, 63, 95); opacity: 1; font-weight: normal; white-space: pre;">Budget vs Actual</text></g><g class="annotation" data-index="0" style="opacity: 1;"><g class="annotation-text-g" transform="rotate(0,193.60000000000002,245)"><g class="cursor-pointer" transform="translate(174,237)"><rect class="bg" x="0.5" y="0.5" width="39" height="15" style="stroke-width: 1px; stroke: rgb(0, 0, 0); stroke-opacity: 0; fill: rgb(0, 0, 0); fill-opacity: 0;"/><text class="annotation-text" text-anchor="middle" x="19.78125" y="12" style="font-family: 'Open Sans', verdana, arial, sans-serif; font-size: 10px; fill: rgb(42, 63, 95); fill-opacity: 1; white-space: pre;">Budget</text></g></g></g><g class="annotation" data-index="1" style="opacity: 1;"><g class="annotation-text-g" transform="rotate(0,436.90000000000003,245)"><g class="cursor-pointer" transform="translate(419,237)"><rect class="bg" x="0.5" y="0.5" width="34" height="15" style="stroke-width: 1px; stroke: rgb(0, 0, 0); stroke-opacity: 0; fill: rgb(0, 0, 0); fill-opacity: 0;"/><text class="annotation-text" text-anchor="middle" x="17.546875" y="12" style="font-family: 'Open Sans', verdana, arial, sans-serif; font-size: 10px; fill: rgb(42, 63, 95); fill-opacity: 1; white-space: pre;">Actual</text></g></g></g></g></svg>