<svg class="main-svg" xmlns="http://www.w3.org/2000/svg" xmlns:xlink="http://www.w3.org/1999/xlink" width="700" height="500" style="" viewBox="0 0 700 500"><rect x="0" y="0" width="700" height="500" style="fill: rgb(255, 255, 255); fill-opacity: 1;"/><defs id="defs-2b5521"><g class="clips"/><g class="gradients"/><g class="patterns"/></defs><g class="bglayer"/><g class="layer-below"><g class="imagelayer"/><g class="shapelayer"/></g><g class="cartesianlayer"/><g class="polarlayer"/><g class="smithlayer"/><g class="ternarylayer"/><g class="geolayer"/><g class="funnelarealayer"/><g class="pielayer"><g class="trace" stroke-linejoin="round" style="opacity: 1;"><g class="slice"><path class="surface" d="M229.51835018173716,299.710603786565a48.6,48.6 0 0 0 -28.01835018173715,-88.310603786565l0,-72.89999999999999a121.5,121.5 0 0 1 70.04587545434288,220.77650946641248Z" style="pointer-events: all; stroke-width: 0; fill: rgb(72, 209, 204); fill-opacity: 1; stroke: rgb(68, 68, 68); stroke-opacity: 1;"/><g class="slicetext"><text data-notex="1" class="slicetext" transform="translate(282.5676553598378,231.61043591736856)scale(0.7508924011747574)" text-anchor="middle" x="0" y="0" style="font-family: Arial; font-size: 12px; fill: rgb(128, 128, 128); fill-opacity: 1; white-space: pre;"><tspan class="line" dy="0em" x="0" y="0">home</tspan><tspan class="line" dy="1.3em" x="0" y="0">40.2%</tspan></text></g></g><g class="slice"><path class="surface" d="M201.5,211.4a48.6,48.6 0 0 0 -42.942464829930934,25.842480048780686l-64.4136972448964,-34.13627992682897a121.5,121.5 0 0 1 107.35616207482732,-64.60620012195172Z" style="pointer-events: all; stroke-width: 0; fill: rgb(131, 216, 193); fill-opacity: 1; stroke: rgb(68, 68, 68); stroke-opacity: 1;"/><g class="slicetext"><text data-notex="1" class="slicetext" transform="translate(157.6460941063376,184.45875004599293)scale(0.7508924011747574)" text-anchor="middle" x="0" y="0" style="font-family: Arial; font-size: 12px; fill: rgb(128, 128, 128); fill-opacity: 1; white-space: pre;"><tspan class="line" dy="0em" x="0" y="0">food</tspan><tspan class="line" dy="1.3em" x="0" y="0">17.2%</tspan></text></g></g><g class="slice"><path class="surface" d="M158.55753517006906,237.2424800487807a48.6,48.6 0 0 0 -4.321806370394239,34.07337908352175l-70.89640680048775,16.97378869845366a121.5,121.5 0 0 1 10.804515925985598,-85.18344770880438Z" style="pointer-events: all; stroke-width: 0; fill: rgb(144, 238, 144); fill-opacity: 1; stroke: rgb(68, 68, 68); stroke-opacity: 1;"/><g class="slicetext"><text data-notex="1" class="slicetext" transform="translate(112.43685515387996,246.03420240616666)scale(0.7508924011747574)" text-anchor="middle" x="0" y="0" style="font-family: Arial; font-size: 12px; fill: rgb(128, 128, 128); fill-opacity: 1; white-space: pre;"><tspan class="line" dy="0em" x="0" y="0">lifestyle</tspan><tspan class="line" dy="1.3em" x="0" y="0">11.5%</tspan></text></g></g><g class="slice"><path class="surface" d="M154.23572879967483,271.3158591323024a48.6,48.6 0 0 0 11.394845956535773,21.47658409293169l-53.80413786568409,49.1886648378512a121.5,121.5 0 0 1 -28.48711489133943,-53.69146023232923Z" style="pointer-events: all; stroke-width: 0; fill: rgb(240, 242, 166); fill-opacity: 1; stroke: rgb(68, 68, 68); stroke-opacity: 1;"/><g class="slicetext"><text data-notex="1" class="slicetext" transform="translate(115.6456637458853,302.88260625576527)scale(0.7508924011747574)" text-anchor="middle" x="0" y="0" style="font-family: Arial; font-size: 12px; fill: rgb(128, 128, 128); fill-opacity: 1; white-space: pre;"><tspan class="line" dy="0em" x="0" y="0">baby</tspan><tspan class="line" dy="1.3em" x="0" y="0">8.05%</tspan></text></g></g><g class="slice"><path class="surface" d="M165.6305747562106,292.79244322523414a48.6,48.6 0 0 0 13.901461391551614,10.559241450067402l-32.951945778356674,65.02752701295229a121.5,121.5 0 0 1 -34.75365347887903,-26.398103625168503Z" style="pointer-events: all; stroke-width: 0; fill: rgb(255, 215, 0); fill-opacity: 1; stroke: rgb(68, 68, 68); stroke-opacity: 1;"/><g class="slicetext"><text data-notex="1" class="slicetext" transform="translate(137.37847028416212,340.0045020051459)scale(0.7508924011747574)rotate(-52.78050275904354)" text-anchor="middle" x="0" y="0" style="font-family: Arial; font-size: 12px; fill: rgb(128, 128, 128); fill-opacity: 1; white-space: pre;"><tspan class="line" dy="0em" x="0" y="0">utility</tspan><tspan class="line" dy="1.3em" x="0" y="0">5.75%</tspan></text></g></g><g class="slice"><path class="surface" d="M179.5320361477622,303.35168467530156a48.6,48.6 0 0 0 16.735843699223036,4.965857881252572l-7.848180229522122,72.47631383483116a121.5,121.5 0 0 1 -41.83960924805759,-12.41464470313143Z" style="pointer-events: all; stroke-width: 0; fill: rgb(255, 170, 90); fill-opacity: 1; stroke: rgb(68, 68, 68); stroke-opacity: 1;"/><g class="slicetext"><text data-notex="1" class="slicetext" transform="translate(170.48713360508404,355.1357006181225)scale(0.7508924011747574)rotate(-73.47332924586146)" text-anchor="middle" x="0" y="0" style="font-family: Arial; font-size: 12px; fill: rgb(128, 128, 128); fill-opacity: 1; white-space: pre;"><tspan class="line" dy="0em" x="0" y="0">medical</tspan><tspan class="line" dy="1.3em" x="0" y="0">5.75%</tspan></text></g></g><g class="slice"><path class="surface" d="M196.26787984698524,308.3175425565541a48.6,48.6 0 0 0 17.41090984978052,-1.2682377633698423l18.26818454514866,70.5739571897764a121.5,121.5 0 0 1 -43.5272746244513,3.1705944084246056Z" style="pointer-events: all; stroke-width: 0; fill: rgb(255, 160, 122); fill-opacity: 1; stroke: rgb(68, 68, 68); stroke-opacity: 1;"/><g class="slicetext"><text data-notex="1" class="slicetext" transform="translate(210.84328407198575,351.52775929222327)scale(0.7508924011747574)rotate(85.83384426732061)" text-anchor="middle" x="0" y="0" style="font-family: Arial; font-size: 12px; fill: rgb(128, 128, 128); fill-opacity: 1; white-space: pre;"><tspan class="line" dy="0em" x="0" y="0">transportation</tspan><tspan class="line" dy="1.3em" x="0" y="0">5.75%</tspan></text></g></g><g class="slice"><path class="surface" d="M213.67878969676576,307.04930479318426a48.6,48.6 0 0 0 15.83956048497138,-7.338701006619278l42.02752527260572,59.565905679847475a121.5,121.5 0 0 1 -39.598901212428444,18.346752516548193Z" style="pointer-events: all; stroke-width: 0; fill: rgb(255, 131, 96); fill-opacity: 1; stroke: rgb(68, 68, 68); stroke-opacity: 1;"/><g class="slicetext"><text data-notex="1" class="slicetext" transform="translate(246.063926804162,349.8356395117478)scale(0.7508924011747574)rotate(65.1410177805028)" text-anchor="middle" x="0" y="0" style="font-family: Arial; font-size: 12px; fill: rgb(128, 128, 128); fill-opacity: 1; white-space: pre;"><tspan class="line" dy="0em" x="0" y="0">savings</tspan><tspan class="line" dy="1.3em" x="0" y="0">5.75%</tspan></text></g></g><g class="slice"><path class="surface" d="M229.51835018173716,299.710603786565a48.6,48.6 0 0 0 0,0l42.02752527260572,59.565905679847475a121.5,121.5 0 0 1 0,0Z" style="pointer-events: all; stroke-width: 0; fill: rgb(237, 106, 90); fill-opacity: 1; stroke: rgb(68, 68, 68); stroke-opacity: 1;"/><g class="slicetext"><text data-notex="1" class="slicetext" transform="translate(201.5,138.5)scale(0)" text-anchor="middle" x="0" y="0" style="font-family: Arial; font-size: 12px; fill: rgb(128, 128, 128); fill-opacity: 1; white-space: pre;"><tspan class="line" dy="0em" x="0" y="0">other</tspan><tspan class="line" dy="1.3em" x="0" y="0">0%</tspan></text></g></g><g class="slice"><path class="surface" d="M229.51835018173716,299.710603786565a48.6,48.6 0 0 0 0,0l42.02752527260572,59.565905679847475a121.5,121.5 0 0 1 0,0Z" style="pointer-events: all; stroke-width: 0; fill: rgb(255, 99, 71); fill-opacity: 1; stroke: rgb(68, 68, 68); stroke-opacity: 1;"/><g class="slicetext"><text data-notex="1" class="slicetext" transform="translate(201.5,138.5)scale(0)" text-anchor="middle" x="0" y="0" style="font-family: Arial; font-size: 12px; fill: rgb(128, 128, 128); fill-opacity: 1; white-space: pre;"><tspan class="line" dy="0em" x="0" y="0">food_other</tspan><tspan class="line" dy="1.3em" x="0" y="0">0%</tspan></text></g></g></g><g class="trace" stroke-linejoin="round" style="opacity: 1;"><g class="slice"><path class="surface" d="M547.0678912850163,261.7663340926445a48.599999999999994,48.599999999999994 0 0 0 -48.567891285016294,-50.36633409264448l0,-72.89999999999999a121.49999999999999,121.49999999999999 0 0 1 121.41972821254073,125.9158352316112Z" style="pointer-events: all; stroke-width: 0; fill: rgb(72, 209, 204); fill-opacity: 1; stroke: rgb(68, 68, 68); stroke-opacity: 1;"/><g class="slicetext"><text data-notex="1" class="slicetext" transform="translate(559.7225418065682,198.29435838918178)scale(0.7508924011747574)" text-anchor="middle" x="0" y="0" style="font-family: Arial; font-size: 12px; fill: rgb(128, 128, 128); fill-opacity: 1; white-space: pre;"><tspan class="line" dy="0em" x="0" y="0">food</tspan><tspan class="line" dy="1.3em" x="0" y="0">25.6%</tspan></text></g></g><g class="slice"><path class="surface" d="M498.5,211.4a48.599999999999994,48.599999999999994 0 0 0 -48.07848561927046,41.49935069464747l-72.11772842890568,-10.65097395802879a121.49999999999999,121.49999999999999 0 0 1 120.19621404817615,-103.74837673661867Z" style="pointer-events: all; stroke-width: 0; fill: rgb(131, 216, 193); fill-opacity: 1; stroke: rgb(68, 68, 68); stroke-opacity: 1;"/><g class="slicetext"><text data-notex="1" class="slicetext" transform="translate(440.0021143369086,192.22810218634538)scale(0.7508924011747574)rotate(-40.79939573235981)" text-anchor="middle" x="0" y="0" style="font-family: Arial; font-size: 12px; fill: rgb(128, 128, 128); fill-opacity: 1; white-space: pre;"><tspan class="line" dy="0em" x="0" y="0">transportation</tspan><tspan class="line" dy="1.3em" x="0" y="0">22.7%</tspan></text></g></g><g class="slice"><path class="surface" d="M450.42151438072955,252.89935069464747a48.599999999999994,48.599999999999994 0 0 0 14.757316421402539,42.47945204494587l-49.981753796801875,53.06820410939002a121.49999999999999,121.49999999999999 0 0 1 -36.893291053506346,-106.19863011236468Z" style="pointer-events: all; stroke-width: 0; fill: rgb(144, 238, 144); fill-opacity: 1; stroke: rgb(68, 68, 68); stroke-opacity: 1;"/><g class="slicetext"><text data-notex="1" class="slicetext" transform="translate(418.1599050453112,285.2408756336173)scale(0.7508924011747574)" text-anchor="middle" x="0" y="0" style="font-family: Arial; font-size: 12px; fill: rgb(128, 128, 128); fill-opacity: 1; white-space: pre;"><tspan class="line" dy="0em" x="0" y="0">utility</tspan><tspan class="line" dy="1.3em" x="0" y="0">15.3%</tspan></text></g></g><g class="slice"><path class="surface" d="M465.1788308021321,295.37880273959337a48.599999999999994,48.599999999999994 0 0 0 27.826150615789828,12.909547519890731l-8.242527873117139,72.43252538922611a121.49999999999999,121.49999999999999 0 0 1 -69.56537653947457,-32.27386879972683Z" style="pointer-events: all; stroke-width: 0; fill: rgb(240, 242, 166); fill-opacity: 1; stroke: rgb(68, 68, 68); stroke-opacity: 1;"/><g class="slicetext"><text data-notex="1" class="slicetext" transform="translate(459.6326754265058,341.1081890237388)scale(0.7508924011747574)" text-anchor="middle" x="0" y="0" style="font-family: Arial; font-size: 12px; fill: rgb(128, 128, 128); fill-opacity: 1; white-space: pre;"><tspan class="line" dy="0em" x="0" y="0">baby</tspan><tspan class="line" dy="1.3em" x="0" y="0">10.2%</tspan></text></g></g><g class="slice"><path class="surface" d="M493.0049814179219,308.2883502594841a48.599999999999994,48.599999999999994 0 0 0 26.119634181266317,-4.281700405334516l30.93692339878233,66.00997478122434a121.49999999999999,121.49999999999999 0 0 1 -65.29908545316579,10.70425101333629Z" style="pointer-events: all; stroke-width: 0; fill: rgb(255, 215, 0); fill-opacity: 1; stroke: rgb(68, 68, 68); stroke-opacity: 1;"/><g class="slicetext"><text data-notex="1" class="slicetext" transform="translate(513.9481109298197,351.5688410068484)scale(0.7508924011747574)" text-anchor="middle" x="0" y="0" style="font-family: Arial; font-size: 12px; fill: rgb(128, 128, 128); fill-opacity: 1; white-space: pre;"><tspan class="line" dy="0em" x="0" y="0">lifestyle</tspan><tspan class="line" dy="1.3em" x="0" y="0">8.78%</tspan></text></g></g><g class="slice"><path class="surface" d="M519.1246155991882,304.00664985414954a48.599999999999994,48.599999999999994 0 0 0 16.210645837101467,-12.302966867465045l55.25289215443453,47.55552448002677a121.49999999999999,121.49999999999999 0 0 1 -40.52661459275367,30.757417168662613Z" style="pointer-events: all; stroke-width: 0; fill: rgb(255, 170, 90); fill-opacity: 1; stroke: rgb(68, 68, 68); stroke-opacity: 1;"/><g class="slicetext"><text data-notex="1" class="slicetext" transform="translate(559.8021611707343,336.357840112339)scale(0.7508924011747574)rotate(52.8035500723862)" text-anchor="middle" x="0" y="0" style="font-family: Arial; font-size: 12px; fill: rgb(128, 128, 128); fill-opacity: 1; white-space: pre;"><tspan class="line" dy="0em" x="0" y="0">savings</tspan><tspan class="line" dy="1.3em" x="0" y="0">6.71%</tspan></text></g></g><g class="slice"><path class="surface" d="M535.3352614362897,291.7036829866845a48.599999999999994,48.599999999999994 0 0 0 9.654071241748966,-17.53675152109724l69.73399901705798,21.25039719838091a121.49999999999999,121.49999999999999 0 0 1 -24.135178104372415,43.8418788027431Z" style="pointer-events: all; stroke-width: 0; fill: rgb(255, 160, 122); fill-opacity: 1; stroke: rgb(68, 68, 68); stroke-opacity: 1;"/><g class="slicetext"><text data-notex="1" class="slicetext" transform="translate(585.5672696454604,304.88405922096683)scale(0.7508924011747574)rotate(28.83300811984634)" text-anchor="middle" x="0" y="0" style="font-family: Arial; font-size: 12px; fill: rgb(128, 128, 128); fill-opacity: 1; white-space: pre;"><tspan class="line" dy="0em" x="0" y="0">medical</tspan><tspan class="line" dy="1.3em" x="0" y="0">6.6%</tspan></text></g></g><g class="slice"><path class="surface" d="M544.9893326780386,274.16693146558725a48.599999999999994,48.599999999999994 0 0 0 1.718939689023654,-8.008808749764176l72.31240855059346,9.237184073734646a121.49999999999999,121.49999999999999 0 0 1 -4.297349222559134,20.02202187441044Z" style="pointer-events: all; stroke-width: 0; fill: rgb(255, 131, 96); fill-opacity: 1; stroke: rgb(68, 68, 68); stroke-opacity: 1;"/><g class="slicetext"><text data-notex="1" class="slicetext" transform="translate(602.1993411436077,282.2571069914236)scale(0)rotate(12.11367784981428)" text-anchor="middle" x="0" y="0" style="font-family: Arial; font-size: 12px; fill: rgb(128, 128, 128); fill-opacity: 1; white-space: pre;"><tspan class="line" dy="0em" x="0" y="0">food_other</tspan><tspan class="line" dy="1.3em" x="0" y="0">2.69%</tspan></text></g></g><g class="slice"><path class="surface" d="M546.7082723670624,266.1581227158231a48.599999999999994,48.599999999999994 0 0 0 0.3540399532977745,-4.244533914695066l72.84346848054012,2.870383201692047a121.49999999999999,121.49999999999999 0 0 1 -0.8850998832444361,10.611334786737665Z" style="pointer-events: all; stroke-width: 0; fill: rgb(237, 106, 90); fill-opacity: 1; stroke: rgb(68, 68, 68); stroke-opacity: 1;"/><g class="slicetext"><text data-notex="1" class="slicetext" transform="translate(614.3477234851213,269.66295085317347)scale(0)rotate(-85.23195065147615)" text-anchor="middle" x="0" y="0" style="font-family: Arial; font-size: 12px; fill: rgb(128, 128, 128); fill-opacity: 1; white-space: pre;"><tspan class="line" dy="0em" x="0" y="0">other</tspan><tspan class="line" dy="1.3em" x="0" y="0">1.4%</tspan></text></g></g><g class="slice"><path class="surface" d="M547.0623123203601,261.913588801128a48.599999999999994,48.599999999999994 0 0 0 0.005578964656211838,-0.14725470848357566l72.85183692752443,2.649501138966684a121.49999999999999,121.49999999999999 0 0 1 -0.013947411640529594,0.3681367712089392Z" style="pointer-events: all; stroke-width: 0; fill: rgb(255, 99, 71); fill-opacity: 1; stroke: rgb(68, 68, 68); stroke-opacity: 1;"/><g class="slicetext"><text data-notex="1" class="slicetext" transform="translate(619.6146588050977,264.58860981615044)scale(0)rotate(2.169698495625312)" text-anchor="middle" x="0" y="0" style="font-family: Arial; font-size: 12px; fill: rgb(128, 128, 128); fill-opacity: 1; white-space: pre;"><tspan class="line" dy="0em" x="0" y="0">home</tspan><tspan class="line" dy="1.3em" x="0" y="0">0.0483%</tspan></text></g></g></g></g><g class="iciclelayer"/><g class="treemaplayer"/><g class="sunburstlayer"/><g class="glimages"/><defs id="topdefs-2b5521"><g class="clips"/></defs><g class="layer-above"><g class="imagelayer"/><g class="shapelayer"/></g><g class="infolayer"><g class="g-gtitle"><text class="gtitle" x="35" y="50" text-anchor="start" dy="0em" style="font-family: Arial; font-size: 14px; fill: rgb(128, 128, 128); opacity: 1; font-weight: normal; white-space: pre;">21-22 Year Total Budget vs Actual</text></g><g class="annotation" data-index="0" style="opacity: 1;"><g class="annotation-text-g" transform="rotate(0,210.5,260)"><g class="cursor-pointer" transform="translate(188,244)"><rect class="bg" x="0.5" y="0.5" width="44" height="32" style="stroke-width: 1px; stroke: rgb(0, 0, 0); stroke-opacity: 0; fill: rgb(0, 0, 0); fill-opacity: 0;"/><text class="annotation-text" text-anchor="middle" x="22.671875" y="13" style="font-family: Arial; font-size: 12px; fill: rgb(128, 128, 128); fill-opacity: 1; white-space: pre;"><tspan class="line" dy="0em" x="22.671875" y="13"><tspan style="font-weight:bold">Budget</tspan></tspan><tspan class="line" dy="1.3em" x="22.671875" y="13">$78288</tspan></text></g></g></g><g class="annotation" data-index="1" style="opacity: 1;"><g class="annotation-text-g" transform="rotate(0,490,260)"><g class="cursor-pointer" transform="translate(468,244)"><rect class="bg" x="0.5" y="0.5" width="43" height="32" style="stroke-width: 1px; stroke: rgb(0, 0, 0); stroke-opacity: 0; fill: rgb(0, 0, 0); fill-opacity: 0;"/><text class="annotation-text" text-anchor="middle" x="22.03125" y="13" style="font-family: Arial; font-size: 12px; fill: rgb(128, 128, 128); fill-opacity: 1; white-space: pre;"><tspan class="line" dy="0em" x="22.03125" y="13"><tspan style="font-weight:bold">Actual</tspan></tspan><tspan class="line" dy="1.3em" x="22.03125" y="13">$47661</tspan></text></g></g></g></g></svg>