<svg class="main-svg" xmlns="http://www.w3.org/2000/svg" xmlns:xlink="http://www.w3.org/1999/xlink" width="700" height="775" style="" viewBox="0 0 700 775"><rect x="0" y="0" width="700" height="775" style="fill: rgb(255, 255, 255); fill-opacity: 1;"/><defs id="defs-f77ea6"><g class="clips"/><g class="gradients"/></defs><g class="bglayer"/><g class="layer-below"><g class="imagelayer"/><g class="shapelayer"/></g><g class="cartesianlayer"/><g class="polarlayer"/><g class="ternarylayer"/><g class="geolayer"/><g class="funnelarealayer"/><g class="pielayer"/><g class="treemaplayer"/><g class="sunburstlayer"><g class="trace sunburst" stroke-linejoin="round" style="opacity: 1;"><g class="slice"><path class="surface" d="M350,377.5A0,0 0,1,0 350,377.5A0,0 0,1,0 350,377.5ZM440,377.5A90,90 0,1,1 260,377.5A90,90 0,1,1 440,377.5Z" style="pointer-events: all; stroke-width: 1; fill: rgb(0, 0, 0); fill-opacity: 0; stroke: rgb(255, 255, 255); stroke-opacity: 1;"/><g class="slicetext"><text data-notex="1" class="slicetext" text-anchor="middle" x="0" y="0" style="font-family: 'Open Sans', verdana, arial, sans-serif; font-size: 12px; fill: rgb(42, 63, 95); fill-opacity: 1; white-space: pre;" transform="translate(350,382.25)">Needs/Wants</text></g></g><g class="slice cursor-pointer"><path class="surface" d="M440,377.5L530,377.5A180,180 0,1,0 276.6169493104959,541.8621850411514L313.30847465524795,459.6810925205757A90,90 0,1,1 440,377.5Z" style="pointer-events: all; stroke-width: 1; fill: rgb(99, 110, 250); fill-opacity: 1; stroke: rgb(255, 255, 255); stroke-opacity: 1;"/><g class="slicetext"><text data-notex="1" class="slicetext" text-anchor="middle" x="0" y="0" style="font-family: 'Open Sans', verdana, arial, sans-serif; font-size: 12px; fill: rgb(255, 255, 255); fill-opacity: 1; white-space: pre;" transform="translate(287.2750452714559,280.8023296721182)rotate(-32.97029702970292)">Essential</text></g></g><g class="slice cursor-pointer"><path class="surface" d="M313.30847465524795,459.6810925205757L276.6169493104959,541.8621850411514A180,180 0,0,0 530,377.50000000000006L440,377.5A90,90 0,0,1 313.30847465524795,459.6810925205757Z" style="pointer-events: all; stroke-width: 1; fill: rgb(239, 85, 59); fill-opacity: 1; stroke: rgb(255, 255, 255); stroke-opacity: 1;"/><g class="slicetext"><text data-notex="1" class="slicetext" text-anchor="middle" x="0" y="0" style="font-family: 'Open Sans', verdana, arial, sans-serif; font-size: 12px; fill: rgb(68, 68, 68); fill-opacity: 1; white-space: pre;" transform="translate(423.46756467206365,495.5086285505707)">Non-Essential</text></g></g><g class="slice"><path class="surface" d="M530,377.5L620,377.5A270,270 0,0,0 583.1238603220992,241.28962686886726L505.41590688139945,286.69308457924484A180,180 0,0,1 530,377.5Z" style="pointer-events: all; stroke-width: 1; fill: rgb(99, 110, 250); fill-opacity: 1; stroke: rgb(255, 255, 255); stroke-opacity: 1; opacity: 0.7;"/><g class="slicetext"><text data-notex="1" class="slicetext" text-anchor="middle" x="0" y="0" style="font-family: 'Open Sans', verdana, arial, sans-serif; font-size: 12px; fill: rgb(255, 255, 255); fill-opacity: 1; white-space: pre;" transform="translate(567.181633443523,323.45256727710637)">software</text></g></g><g class="slice"><path class="surface" d="M505.41590688139945,286.69308457924484L583.1238603220992,241.28962686886726A270,270 0,0,0 489.81939872254793,146.52265102208577L443.2129324816986,223.51510068139052A180,180 0,0,1 505.41590688139945,286.69308457924484Z" style="pointer-events: all; stroke-width: 1; fill: rgb(99, 110, 250); fill-opacity: 1; stroke: rgb(255, 255, 255); stroke-opacity: 1; opacity: 0.7;"/><g class="slicetext"><text data-notex="1" class="slicetext" text-anchor="middle" x="0" y="0" style="font-family: 'Open Sans', verdana, arial, sans-serif; font-size: 12px; fill: rgb(255, 255, 255); fill-opacity: 1; white-space: pre;" transform="translate(510.331391933189,224.39296100342526)">groceries</text></g></g><g class="slice"><path class="surface" d="M443.2129324816986,223.51510068139052L489.81939872254793,146.52265102208577A270,270 0,0,0 362.5929054046028,107.79382889249507L358.3952702697352,197.69588592833006A180,180 0,0,1 443.2129324816986,223.51510068139052Z" style="pointer-events: all; stroke-width: 1; fill: rgb(99, 110, 250); fill-opacity: 1; stroke: rgb(255, 255, 255); stroke-opacity: 1; opacity: 0.7;"/><g class="slicetext"><text data-notex="1" class="slicetext" text-anchor="middle" x="0" y="0" style="font-family: 'Open Sans', verdana, arial, sans-serif; font-size: 12px; fill: rgb(255, 255, 255); fill-opacity: 1; white-space: pre;" transform="translate(415.49987275113176,167.00201321793062)">water</text></g></g><g class="slice"><path class="surface" d="M330.44261298461464,198.56563043079052L320.663919476922,109.09844564618578A270,270 0,0,0 287.58239302895834,114.81379491871184L308.38826201930556,202.37586327914124A180,180 0,0,1 330.44261298461464,198.56563043079052Z" style="pointer-events: all; stroke-width: 1; fill: rgb(99, 110, 250); fill-opacity: 1; stroke: rgb(255, 255, 255); stroke-opacity: 1; opacity: 0.7;"/><g class="slicetext"><text data-notex="1" class="slicetext" text-anchor="middle" x="0" y="0" style="font-family: 'Open Sans', verdana, arial, sans-serif; font-size: 12px; fill: rgb(255, 255, 255); fill-opacity: 1; white-space: pre;" transform="translate(307.02573393768034,156.657993829335)rotate(80.1980198019802)">prescriptions</text></g></g><g class="slice"><path class="surface" d="M308.38826201930556,202.37586327914124L287.58239302895834,114.81379491871184A270,270 0,0,0 263.3770421498508,121.77267808602991L292.2513614332339,207.01511872401994A180,180 0,0,1 308.38826201930556,202.37586327914124Z" style="pointer-events: all; stroke-width: 1; fill: rgb(99, 110, 250); fill-opacity: 1; stroke: rgb(255, 255, 255); stroke-opacity: 1; opacity: 0.7;"/><g class="slicetext"><text data-notex="1" class="slicetext" text-anchor="middle" x="0" y="0" style="font-family: 'Open Sans', verdana, arial, sans-serif; font-size: 12px; fill: rgb(255, 255, 255); fill-opacity: 1; white-space: pre;" transform="translate(275.3247724859211,134.9456357395274)rotate(73.960396039604)">gas</text></g></g><g class="slice"><path class="surface" d="M292.2513614332339,207.01511872401994L263.3770421498508,121.77267808602991A270,270 0,0,0 247.64613096309765,127.65267563334476L281.76408730873175,210.9351170888965A180,180 0,0,1 292.2513614332339,207.01511872401994Z" style="pointer-events: all; stroke-width: 1; fill: rgb(99, 110, 250); fill-opacity: 1; stroke: rgb(255, 255, 255); stroke-opacity: 1; opacity: 0.7;"/><g class="slicetext"><text data-notex="1" class="slicetext" text-anchor="middle" x="0" y="0" style="font-family: 'Open Sans', verdana, arial, sans-serif; font-size: 12px; fill: rgb(255, 255, 255); fill-opacity: 1; white-space: pre;" transform="translate(257.35300115292796,142.97687618186723)scale(0.9831414109723917)rotate(69.50495049504957)">repair</text></g></g><g class="slice"><path class="surface" d="M266.54056424264115,218.01795529570333L224.81084636396167,138.27693294355498A270,270 0,0,0 217.43159813720303,142.28601481301334L261.62106542480205,220.6906765420089A180,180 0,0,1 266.54056424264115,218.01795529570333Z" style="pointer-events: all; stroke-width: 1; fill: rgb(99, 110, 250); fill-opacity: 1; stroke: rgb(255, 255, 255); stroke-opacity: 1; opacity: 0.7;"/><g class="slicetext"><text data-notex="1" class="slicetext" text-anchor="middle" x="0" y="0" style="font-family: 'Open Sans', verdana, arial, sans-serif; font-size: 12px; fill: rgb(255, 255, 255); fill-opacity: 1; white-space: pre;" transform="translate(223.68349839539746,150.2167954529948)scale(0.5245334006664388)rotate(61.48514851485152)">phone</text></g></g><g class="slice"><path class="surface" d="M256.78706751830146,223.51510068139052L210.18060127745213,146.52265102208577A270,270 0,0,0 203.0648706558726,150.9827428988587L252.04324710391506,226.4884952659058A180,180 0,0,1 256.78706751830146,223.51510068139052Z" style="pointer-events: all; stroke-width: 1; fill: rgb(99, 110, 250); fill-opacity: 1; stroke: rgb(255, 255, 255); stroke-opacity: 1; opacity: 0.7;"/><g class="slicetext"><text data-notex="1" class="slicetext" text-anchor="middle" x="0" y="0" style="font-family: 'Open Sans', verdana, arial, sans-serif; font-size: 12px; fill: rgb(255, 255, 255); fill-opacity: 1; white-space: pre;" transform="translate(215.45835550565639,167.1529023806568)scale(0.48118643527797345)rotate(57.9207920792079)">appointments</text></g></g><g class="slice"><path class="surface" d="M276.6169493104959,541.8621850411514L239.9254239657439,624.043277561727A270,270 0,0,0 320.6639194769217,645.9015543538142L330.44261298461447,556.4343695692095A180,180 0,0,1 276.6169493104959,541.8621850411514Z" style="pointer-events: all; stroke-width: 1; fill: rgb(239, 85, 59); fill-opacity: 1; stroke: rgb(255, 255, 255); stroke-opacity: 1; opacity: 0.7;"/><g class="slicetext"><text data-notex="1" class="slicetext" text-anchor="middle" x="0" y="0" style="font-family: 'Open Sans', verdana, arial, sans-serif; font-size: 12px; fill: rgb(68, 68, 68); fill-opacity: 1; white-space: pre;" transform="translate(288.90637246099624,607.9131490093063)">fast_food</text></g></g><g class="slice"><path class="surface" d="M375.1127610099061,555.7395838035405L387.6691415148591,644.8593757053108A270,270 0,0,0 412.4176069710416,640.1862050812881L391.6117379806944,552.6241367208588A180,180 0,0,1 375.1127610099061,555.7395838035405Z" style="pointer-events: all; stroke-width: 1; fill: rgb(239, 85, 59); fill-opacity: 1; stroke: rgb(255, 255, 255); stroke-opacity: 1; opacity: 0.7;"/><g class="slicetext"><text data-notex="1" class="slicetext" text-anchor="middle" x="0" y="0" style="font-family: 'Open Sans', verdana, arial, sans-serif; font-size: 12px; fill: rgb(68, 68, 68); fill-opacity: 1; white-space: pre;" transform="translate(387.70416980445873,602.7759486015112)rotate(79.30693069306938)">restaurants</text></g></g><g class="slice"><path class="surface" d="M391.6117379806944,552.6241367208588L412.4176069710416,640.1862050812881A270,270 0,0,0 436.62295785014896,633.2273219139702L407.748638566766,547.9848812759801A180,180 0,0,1 391.6117379806944,552.6241367208588Z" style="pointer-events: all; stroke-width: 1; fill: rgb(239, 85, 59); fill-opacity: 1; stroke: rgb(255, 255, 255); stroke-opacity: 1; opacity: 0.7;"/><g class="slicetext"><text data-notex="1" class="slicetext" text-anchor="middle" x="0" y="0" style="font-family: 'Open Sans', verdana, arial, sans-serif; font-size: 12px; fill: rgb(68, 68, 68); fill-opacity: 1; white-space: pre;" transform="translate(411.23038189526034,607.6713423071539)rotate(73.960396039604)">delivery</text></g></g><g class="slice"><path class="surface" d="M407.748638566766,547.9848812759801L436.62295785014896,633.2273219139702A270,270 0,0,0 460.0745760342556,624.0432775617273L423.38305068950376,541.8621850411515A180,180 0,0,1 407.748638566766,547.9848812759801Z" style="pointer-events: all; stroke-width: 1; fill: rgb(239, 85, 59); fill-opacity: 1; stroke: rgb(255, 255, 255); stroke-opacity: 1; opacity: 0.7;"/><g class="slicetext"><text data-notex="1" class="slicetext" text-anchor="middle" x="0" y="0" style="font-family: 'Open Sans', verdana, arial, sans-serif; font-size: 12px; fill: rgb(68, 68, 68); fill-opacity: 1; white-space: pre;" transform="translate(431.1761616964167,597.810886304165)rotate(68.61386138613875)">unknown</text></g></g><g class="slice"><path class="surface" d="M423.38305068950376,541.8621850411515L460.0745760342556,624.0432775617273A270,270 0,0,0 475.1891536360381,616.7230670564452L433.45943575735873,536.9820447042968A180,180 0,0,1 423.38305068950376,541.8621850411515Z" style="pointer-events: all; stroke-width: 1; fill: rgb(239, 85, 59); fill-opacity: 1; stroke: rgb(255, 255, 255); stroke-opacity: 1; opacity: 0.7;"/><g class="slicetext"><text data-notex="1" class="slicetext" text-anchor="middle" x="0" y="0" style="font-family: 'Open Sans', verdana, arial, sans-serif; font-size: 12px; fill: rgb(68, 68, 68); fill-opacity: 1; white-space: pre;" transform="translate(453.8214228985735,602.1559167816182)scale(0.9440963564551891)rotate(64.1584158415842)">hobbies</text></g></g><g class="slice"><path class="surface" d="M433.45943575735873,536.9820447042968L475.1891536360381,616.7230670564452A270,270 0,0,0 489.8193987225476,608.4773489779144L443.21293248169843,531.4848993186096A180,180 0,0,1 433.45943575735873,536.9820447042968Z" style="pointer-events: all; stroke-width: 1; fill: rgb(239, 85, 59); fill-opacity: 1; stroke: rgb(255, 255, 255); stroke-opacity: 1; opacity: 0.7;"/><g class="slicetext"><text data-notex="1" class="slicetext" text-anchor="middle" x="0" y="0" style="font-family: 'Open Sans', verdana, arial, sans-serif; font-size: 12px; fill: rgb(68, 68, 68); fill-opacity: 1; white-space: pre;" transform="translate(469.53786620014057,599.0749412151046)scale(0.9800062066632952)rotate(60.59405940594064)">coffee</text></g></g></g></g><g class="glimages"/><defs id="topdefs-f77ea6"><g class="clips"/></defs><g class="layer-above"><g class="imagelayer"/><g class="shapelayer"/></g><g class="infolayer"><g class="g-gtitle"/></g></svg>